<svg xmlns="http://www.w3.org/2000/svg" width="1195.0px" height="920.0px" viewBox="0.0 0.0 1195.0 920.0">
<g>
<line stroke="#000000" x1="170.0" y1="483.0" x2="60.0" y2="240.0"/>
<line stroke="#000000" x1="60.0" y1="240.0" x2="398.0" y2="120.0"/>
<line stroke="#000000" x1="398.0" y1="120.0" x2="450.0" y2="243.0"/>
<line stroke="#000000" x1="450.0" y1="243.0" x2="235.0" y2="325.0"/>
<line stroke="#000000" x1="235.0" y1="325.0" x2="281.0" y2="448.0"/>
<line stroke="#000000" x1="281.0" y1="448.0" x2="170.0" y2="483.0"/>
<line stroke="#000000" x1="1070.0" y1="105.0" x2="770.0" y2="318.0"/>
<line stroke="#000000" x1="770.0" y1="318.0" x2="1060.0" y2="404.0"/>
<line stroke="#000000" x1="1070.0" y1="105.0" x2="1060.0" y2="404.0"/>
<line stroke="#000000" x1="335.0" y1="575.0" x2="502.0" y2="765.0"/>
<line stroke="#000000" x1="700.0" y1="695.0" x2="725.0" y2="430.0"/>
<line stroke="#000000" x1="725.0" y1="430.0" x2="480.0" y2="395.0"/>
<line stroke="#000000" x1="480.0" y1="395.0" x2="335.0" y2="575.0"/>
<line stroke="#000000" x1="100.0" y1="120.0" x2="100.0" y2="120.0"/>
<line stroke="#000000" x1="100.0" y1="120.0" x2="50.0" y2="170.0"/>
<line stroke="#000000" x1="50.0" y1="170.0" x2="0.0" y2="220.0"/>
<line stroke="#000000" x1="0.0" y1="220.0" x2="0.0" y2="270.0"/>
<line stroke="#000000" x1="0.0" y1="270.0" x2="0.0" y2="320.0"/>
<line stroke="#000000" x1="0.0" y1="320.0" x2="0.0" y2="370.0"/>
<line stroke="#000000" x1="0.0" y1="370.0" x2="0.0" y2="420.0"/>
<line stroke="#000000" x1="0.0" y1="420.0" x2="0.0" y2="470.0"/>
<line stroke="#000000" x1="0.0" y1="470.0" x2="0.0" y2="520.0"/>
<line stroke="#000000" x1="0.0" y1="520.0" x2="0.0" y2="570.0"/>
<line stroke="#000000" x1="0.0" y1="570.0" x2="50.0" y2="620.0"/>
<line stroke="#000000" x1="50.0" y1="620.0" x2="100.0" y2="670.0"/>
<line stroke="#000000" x1="100.0" y1="670.0" x2="150.0" y2="670.0"/>
<line stroke="#000000" x1="150.0" y1="670.0" x2="200.0" y2="720.0"/>
<line stroke="#000000" x1="200.0" y1="720.0" x2="250.0" y2="770.0"/>
<line stroke="#000000" x1="250.0" y1="770.0" x2="300.0" y2="820.0"/>
<line stroke="#000000" x1="300.0" y1="820.0" x2="350.0" y2="870.0"/>
<line stroke="#000000" x1="350.0" y1="870.0" x2="400.0" y2="870.0"/>
<line stroke="#000000" x1="400.0" y1="870.0" x2="450.0" y2="920.0"/>
<line stroke="#000000" x1="450.0" y1="920.0" x2="500.0" y2="870.0"/>
<line stroke="#000000" x1="500.0" y1="870.0" x2="550.0" y2="820.0"/>
<line stroke="#000000" x1="550.0" y1="820.0" x2="600.0" y2="770.0"/>
<line stroke="#000000" x1="600.0" y1="770.0" x2="550.0" y2="720.0"/>
<line stroke="#000000" x1="550.0" y1="720.0" x2="550.0" y2="670.0"/>
<line stroke="#000000" x1="550.0" y1="670.0" x2="550.0" y2="620.0"/>
<line stroke="#000000" x1="550.0" y1="620.0" x2="500.0" y2="570.0"/>
</g>
</svg>
