<svg xmlns="http://www.w3.org/2000/svg" width="1195.0px" height="920.0px" viewBox="0.0 0.0 1195.0 920.0">
<g>
<line stroke="#000000" x1="178.2478" y1="501.22015" x2="51.752197" y2="221.77985"/>
<line stroke="#000000" x1="160.02808" y1="509.46887" x2="196.66754" y2="492.8809"/>
<line stroke="#000000" x1="33.53136" y1="230.02612" x2="70.173035" y2="213.44305"/>
<line stroke="#000000" x1="160.02808" y1="509.46887" x2="33.53136" y2="230.02612"/>
<line stroke="#000000" x1="196.66754" y1="492.8809" x2="70.173035" y2="213.44305"/>
<line stroke="#000000" x1="41.15258" y1="246.6914" x2="416.8474" y2="113.30859"/>
<line stroke="#000000" x1="34.460747" y1="227.84412" x2="48.04442" y2="266.102"/>
<line stroke="#000000" x1="410.15588" y1="94.46124" x2="423.73895" y2="132.7193"/>
<line stroke="#000000" x1="34.460747" y1="227.84412" x2="410.15588" y2="94.46124"/>
<line stroke="#000000" x1="48.04442" y1="266.102" x2="423.73895" y2="132.7193"/>
<line stroke="#000000" x1="390.2121" y1="101.57861" x2="457.7879" y2="261.4214"/>
<line stroke="#000000" x1="371.7919" y1="109.369385" x2="408.8323" y2="93.70325"/>
<line stroke="#000000" x1="439.3657" y1="269.2074" x2="476.41013" y2="253.55084"/>
<line stroke="#000000" x1="371.7919" y1="109.369385" x2="439.3657" y2="269.2074"/>
<line stroke="#000000" x1="408.8323" y1="93.70325" x2="476.41013" y2="253.55084"/>
<line stroke="#000000" x1="468.687" y1="235.87286" x2="216.313" y2="332.12714"/>
<line stroke="#000000" x1="461.55905" y1="217.18616" x2="476.01498" y2="255.08392"/>
<line stroke="#000000" x1="209.18552" y1="313.44025" x2="223.64049" y2="351.33838"/>
<line stroke="#000000" x1="461.55905" y1="217.18616" x2="209.18552" y2="313.44025"/>
<line stroke="#000000" x1="476.01498" y1="255.08392" x2="223.64049" y2="351.33838"/>
<line stroke="#000000" x1="227.99423" y1="306.26715" x2="288.00577" y2="466.73285"/>
<line stroke="#000000" x1="209.26056" y1="313.2707" x2="246.92792" y2="299.18884"/>
<line stroke="#000000" x1="269.27286" y1="473.7384" x2="306.9387" y2="459.6525"/>
<line stroke="#000000" x1="209.26056" y1="313.2707" x2="269.27286" y2="473.7384"/>
<line stroke="#000000" x1="246.92792" y1="299.18884" x2="306.9387" y2="459.6525"/>
<line stroke="#000000" x1="300.07425" y1="441.9856" x2="150.92575" y2="489.0144"/>
<line stroke="#000000" x1="294.05945" y1="422.91147" x2="306.28906" y2="461.694"/>
<line stroke="#000000" x1="144.91136" y1="469.94016" x2="157.14014" y2="508.72293"/>
<line stroke="#000000" x1="294.05945" y1="422.91147" x2="144.91136" y2="469.94016"/>
<line stroke="#000000" x1="306.28906" y1="461.694" x2="157.14014" y2="508.72293"/>
<line stroke="#000000" x1="1086.3076" y1="93.42157" x2="753.6923" y2="329.57843"/>
<line stroke="#000000" x1="1074.7307" y1="77.112854" x2="1098.0845" y2="110.01196"/>
<line stroke="#000000" x1="742.1164" y1="313.26898" x2="765.46826" y2="346.16968"/>
<line stroke="#000000" x1="1074.7307" y1="77.112854" x2="742.1164" y2="313.26898"/>
<line stroke="#000000" x1="1098.0845" y1="110.01196" x2="765.46826" y2="346.16968"/>
<line stroke="#000000" x1="750.8254" y1="312.31372" x2="1079.1747" y2="409.68628"/>
<line stroke="#000000" x1="745.138" y1="331.48804" x2="756.71277" y2="292.4651"/>
<line stroke="#000000" x1="1073.4889" y1="428.86105" x2="1085.0604" y2="389.83722"/>
<line stroke="#000000" x1="745.138" y1="331.48804" x2="1073.4889" y2="428.86105"/>
<line stroke="#000000" x1="756.71277" y1="292.4651" x2="1085.0604" y2="389.83722"/>
<line stroke="#000000" x1="1070.6686" y1="85.01117" x2="1059.3314" y2="423.98883"/>
<line stroke="#000000" x1="1050.6798" y1="84.34003" x2="1090.8573" y2="85.689026"/>
<line stroke="#000000" x1="1039.3425" y1="423.3207" x2="1079.5203" y2="424.66364"/>
<line stroke="#000000" x1="1050.6798" y1="84.34003" x2="1039.3425" y2="423.3207"/>
<line stroke="#000000" x1="1090.8573" y1="85.689026" x2="1079.5203" y2="424.66364"/>
<line stroke="#000000" x1="321.79636" y1="559.9779" x2="515.2036" y2="780.0221"/>
<line stroke="#000000" x1="306.7747" y1="573.182" x2="337.01804" y2="546.59796"/>
<line stroke="#000000" x1="500.18137" y1="793.2256" x2="530.4259" y2="766.6428"/>
<line stroke="#000000" x1="306.7747" y1="573.182" x2="500.18137" y2="793.2256"/>
<line stroke="#000000" x1="337.01804" y1="546.59796" x2="530.4259" y2="766.6428"/>
<line stroke="#000000" x1="483.1437" y1="771.6664" x2="718.85626" y2="688.3336"/>
<line stroke="#000000" x1="476.478" y1="752.8098" x2="490.00943" y2="791.0887"/>
<line stroke="#000000" x1="712.19025" y1="669.47723" x2="725.7223" y2="707.7558"/>
<line stroke="#000000" x1="476.478" y1="752.8098" x2="712.19025" y2="669.47723"/>
<line stroke="#000000" x1="490.00943" y1="791.0887" x2="725.7223" y2="707.7558"/>
<line stroke="#000000" x1="698.1215" y1="714.9116" x2="726.8785" y2="410.0884"/>
<line stroke="#000000" x1="678.21014" y1="713.031" x2="718.2329" y2="716.81104"/>
<line stroke="#000000" x1="706.9668" y1="408.21088" x2="746.9902" y2="411.9848"/>
<line stroke="#000000" x1="678.21014" y1="713.031" x2="706.9668" y2="408.21088"/>
<line stroke="#000000" x1="718.2329" y1="716.81104" x2="746.9902" y2="411.9848"/>
<line stroke="#000000" x1="744.799" y1="432.82843" x2="460.20102" y2="392.17157"/>
<line stroke="#000000" x1="741.9708" y1="452.62744" x2="747.8272" y2="411.6292"/>
<line stroke="#000000" x1="457.3726" y1="411.97055" x2="463.22946" y2="370.97247"/>
<line stroke="#000000" x1="741.9708" y1="452.62744" x2="457.3726" y2="411.97055"/>
<line stroke="#000000" x1="747.8272" y1="411.6292" x2="463.22946" y2="370.97247"/>
<line stroke="#000000" x1="492.5466" y1="379.42493" x2="322.4534" y2="590.5751"/>
<line stroke="#000000" x1="476.972" y1="366.87775" x2="508.32123" y2="392.13324"/>
<line stroke="#000000" x1="306.87878" y1="578.02795" x2="338.22803" y2="603.2833"/>
<line stroke="#000000" x1="476.972" y1="366.87775" x2="306.87878" y2="578.02795"/>
<line stroke="#000000" x1="508.32123" y1="392.13324" x2="338.22803" y2="603.2833"/>
</g>
</svg>
