<svg xmlns="http://www.w3.org/2000/svg" width="1195.0px" height="920.0px" viewBox="0.0 0.0 1195.0 920.0">
<g>
<line stroke="#000000" x1="100.0" y1="813.0" x2="46.766754" y2="684.98456"/>
<line stroke="#000000" x1="100.0" y1="813.0" x2="404.07858" y2="812.7696"/>
<line stroke="#000000" x1="100.0" y1="813.0" x2="1072.3612" y2="828.9407"/>
<line stroke="#000000" x1="986.0" y1="166.0" x2="756.0569" y2="604.36456"/>
<line stroke="#000000" x1="986.0" y1="166.0" x2="1066.7454" y2="503.56918"/>
<line stroke="#000000" x1="986.0" y1="166.0" x2="501.09152" y2="140.88625"/>
<line stroke="#000000" x1="986.0" y1="166.0" x2="706.09467" y2="237.76122"/>
<line stroke="#000000" x1="165.0134" y1="423.76697" x2="46.766754" y2="684.98456"/>
<line stroke="#000000" x1="165.0134" y1="423.76697" x2="275.136" y2="459.13205"/>
<line stroke="#000000" x1="165.0134" y1="423.76697" x2="320.88678" y2="345.90964"/>
<line stroke="#000000" x1="165.0134" y1="423.76697" x2="501.09152" y2="140.88625"/>
<line stroke="#000000" x1="165.0134" y1="423.76697" x2="468.68634" y2="516.5147"/>
<line stroke="#000000" x1="46.766754" y1="684.98456" x2="100.0" y2="813.0"/>
<line stroke="#000000" x1="46.766754" y1="684.98456" x2="165.0134" y2="423.76697"/>
<line stroke="#000000" x1="46.766754" y1="684.98456" x2="404.07858" y2="812.7696"/>
<line stroke="#000000" x1="404.07858" y1="812.7696" x2="100.0" y2="813.0"/>
<line stroke="#000000" x1="404.07858" y1="812.7696" x2="46.766754" y2="684.98456"/>
<line stroke="#000000" x1="404.07858" y1="812.7696" x2="1072.3612" y2="828.9407"/>
<line stroke="#000000" x1="404.07858" y1="812.7696" x2="756.0569" y2="604.36456"/>
<line stroke="#000000" x1="404.07858" y1="812.7696" x2="715.9834" y2="500.89487"/>
<line stroke="#000000" x1="444.68182" y1="663.8987" x2="275.136" y2="459.13205"/>
<line stroke="#000000" x1="444.68182" y1="663.8987" x2="1072.3612" y2="828.9407"/>
<line stroke="#000000" x1="444.68182" y1="663.8987" x2="756.0569" y2="604.36456"/>
<line stroke="#000000" x1="444.68182" y1="663.8987" x2="1066.7454" y2="503.56918"/>
<line stroke="#000000" x1="444.68182" y1="663.8987" x2="320.88678" y2="345.90964"/>
<line stroke="#000000" x1="444.68182" y1="663.8987" x2="715.9834" y2="500.89487"/>
<line stroke="#000000" x1="444.68182" y1="663.8987" x2="468.68634" y2="516.5147"/>
<line stroke="#000000" x1="275.136" y1="459.13205" x2="165.0134" y2="423.76697"/>
<line stroke="#000000" x1="275.136" y1="459.13205" x2="444.68182" y2="663.8987"/>
<line stroke="#000000" x1="275.136" y1="459.13205" x2="1072.3612" y2="828.9407"/>
<line stroke="#000000" x1="275.136" y1="459.13205" x2="320.88678" y2="345.90964"/>
<line stroke="#000000" x1="275.136" y1="459.13205" x2="468.68634" y2="516.5147"/>
<line stroke="#000000" x1="1072.3612" y1="828.9407" x2="100.0" y2="813.0"/>
<line stroke="#000000" x1="1072.3612" y1="828.9407" x2="404.07858" y2="812.7696"/>
<line stroke="#000000" x1="1072.3612" y1="828.9407" x2="444.68182" y2="663.8987"/>
<line stroke="#000000" x1="1072.3612" y1="828.9407" x2="275.136" y2="459.13205"/>
<line stroke="#000000" x1="1072.3612" y1="828.9407" x2="756.0569" y2="604.36456"/>
<line stroke="#000000" x1="1072.3612" y1="828.9407" x2="1066.7454" y2="503.56918"/>
<line stroke="#000000" x1="756.0569" y1="604.36456" x2="986.0" y2="166.0"/>
<line stroke="#000000" x1="756.0569" y1="604.36456" x2="404.07858" y2="812.7696"/>
<line stroke="#000000" x1="756.0569" y1="604.36456" x2="444.68182" y2="663.8987"/>
<line stroke="#000000" x1="756.0569" y1="604.36456" x2="1072.3612" y2="828.9407"/>
<line stroke="#000000" x1="756.0569" y1="604.36456" x2="1066.7454" y2="503.56918"/>
<line stroke="#000000" x1="756.0569" y1="604.36456" x2="706.09467" y2="237.76122"/>
<line stroke="#000000" x1="756.0569" y1="604.36456" x2="715.9834" y2="500.89487"/>
<line stroke="#000000" x1="1066.7454" y1="503.56918" x2="986.0" y2="166.0"/>
<line stroke="#000000" x1="1066.7454" y1="503.56918" x2="444.68182" y2="663.8987"/>
<line stroke="#000000" x1="1066.7454" y1="503.56918" x2="1072.3612" y2="828.9407"/>
<line stroke="#000000" x1="1066.7454" y1="503.56918" x2="756.0569" y2="604.36456"/>
<line stroke="#000000" x1="1066.7454" y1="503.56918" x2="706.09467" y2="237.76122"/>
<line stroke="#000000" x1="1066.7454" y1="503.56918" x2="715.9834" y2="500.89487"/>
<line stroke="#000000" x1="320.88678" y1="345.90964" x2="165.0134" y2="423.76697"/>
<line stroke="#000000" x1="320.88678" y1="345.90964" x2="444.68182" y2="663.8987"/>
<line stroke="#000000" x1="320.88678" y1="345.90964" x2="275.136" y2="459.13205"/>
<line stroke="#000000" x1="320.88678" y1="345.90964" x2="501.09152" y2="140.88625"/>
<line stroke="#000000" x1="320.88678" y1="345.90964" x2="468.68634" y2="516.5147"/>
<line stroke="#000000" x1="501.09152" y1="140.88625" x2="986.0" y2="166.0"/>
<line stroke="#000000" x1="501.09152" y1="140.88625" x2="165.0134" y2="423.76697"/>
<line stroke="#000000" x1="501.09152" y1="140.88625" x2="320.88678" y2="345.90964"/>
<line stroke="#000000" x1="706.09467" y1="237.76122" x2="986.0" y2="166.0"/>
<line stroke="#000000" x1="706.09467" y1="237.76122" x2="756.0569" y2="604.36456"/>
<line stroke="#000000" x1="706.09467" y1="237.76122" x2="1066.7454" y2="503.56918"/>
<line stroke="#000000" x1="715.9834" y1="500.89487" x2="404.07858" y2="812.7696"/>
<line stroke="#000000" x1="715.9834" y1="500.89487" x2="444.68182" y2="663.8987"/>
<line stroke="#000000" x1="715.9834" y1="500.89487" x2="756.0569" y2="604.36456"/>
<line stroke="#000000" x1="715.9834" y1="500.89487" x2="1066.7454" y2="503.56918"/>
<line stroke="#000000" x1="468.68634" y1="516.5147" x2="165.0134" y2="423.76697"/>
<line stroke="#000000" x1="468.68634" y1="516.5147" x2="444.68182" y2="663.8987"/>
<line stroke="#000000" x1="468.68634" y1="516.5147" x2="275.136" y2="459.13205"/>
<line stroke="#000000" x1="468.68634" y1="516.5147" x2="320.88678" y2="345.90964"/>
</g>
</svg>
