<svg xmlns="http://www.w3.org/2000/svg" width="1195.0px" height="920.0px" viewBox="0.0 0.0 1195.0 920.0">
<g>
<line stroke="#000000" x1="178.2478" y1="418.77985" x2="51.752197" y2="698.22015"/>
<line stroke="#000000" x1="160.02808" y1="410.53113" x2="196.66754" y2="427.1191"/>
<line stroke="#000000" x1="33.53136" y1="689.9739" x2="70.173035" y2="706.55695"/>
<line stroke="#000000" x1="160.02808" y1="410.53113" x2="33.53136" y2="689.9739"/>
<line stroke="#000000" x1="196.66754" y1="427.1191" x2="70.173035" y2="706.55695"/>
<line stroke="#000000" x1="41.15258" y1="673.3086" x2="416.8474" y2="806.6914"/>
<line stroke="#000000" x1="34.460747" y1="692.1559" x2="48.04442" y2="653.898"/>
<line stroke="#000000" x1="410.15588" y1="825.53876" x2="423.73895" y2="787.2807"/>
<line stroke="#000000" x1="34.460747" y1="692.1559" x2="410.15588" y2="825.53876"/>
<line stroke="#000000" x1="48.04442" y1="653.898" x2="423.73895" y2="787.2807"/>
<line stroke="#000000" x1="390.2121" y1="818.4214" x2="457.7879" y2="658.5786"/>
<line stroke="#000000" x1="371.7919" y1="810.6306" x2="408.8323" y2="826.29675"/>
<line stroke="#000000" x1="439.3657" y1="650.7926" x2="476.41013" y2="666.44916"/>
<line stroke="#000000" x1="371.7919" y1="810.6306" x2="439.3657" y2="650.7926"/>
<line stroke="#000000" x1="408.8323" y1="826.29675" x2="476.41013" y2="666.44916"/>
<line stroke="#000000" x1="468.687" y1="684.12714" x2="216.313" y2="587.87286"/>
<line stroke="#000000" x1="461.55905" y1="702.81384" x2="476.01498" y2="664.9161"/>
<line stroke="#000000" x1="209.18552" y1="606.55975" x2="223.64049" y2="568.6616"/>
<line stroke="#000000" x1="461.55905" y1="702.81384" x2="209.18552" y2="606.55975"/>
<line stroke="#000000" x1="476.01498" y1="664.9161" x2="223.64049" y2="568.6616"/>
<line stroke="#000000" x1="227.99423" y1="613.73285" x2="288.00577" y2="453.26715"/>
<line stroke="#000000" x1="209.26056" y1="606.7293" x2="246.92792" y2="620.81116"/>
<line stroke="#000000" x1="269.27286" y1="446.2616" x2="306.9387" y2="460.3475"/>
<line stroke="#000000" x1="209.26056" y1="606.7293" x2="269.27286" y2="446.2616"/>
<line stroke="#000000" x1="246.92792" y1="620.81116" x2="306.9387" y2="460.3475"/>
<line stroke="#000000" x1="300.07425" y1="478.0144" x2="150.92575" y2="430.9856"/>
<line stroke="#000000" x1="294.05945" y1="497.08853" x2="306.28906" y2="458.306"/>
<line stroke="#000000" x1="144.91136" y1="450.05984" x2="157.14014" y2="411.27707"/>
<line stroke="#000000" x1="294.05945" y1="497.08853" x2="144.91136" y2="450.05984"/>
<line stroke="#000000" x1="306.28906" y1="458.306" x2="157.14014" y2="411.27707"/>
<line stroke="#000000" x1="1086.3076" y1="826.5784" x2="753.6923" y2="590.4216"/>
<line stroke="#000000" x1="1074.7307" y1="842.88715" x2="1098.0845" y2="809.98804"/>
<line stroke="#000000" x1="742.1164" y1="606.731" x2="765.46826" y2="573.8303"/>
<line stroke="#000000" x1="1074.7307" y1="842.88715" x2="742.1164" y2="606.731"/>
<line stroke="#000000" x1="1098.0845" y1="809.98804" x2="765.46826" y2="573.8303"/>
<line stroke="#000000" x1="750.8254" y1="607.6863" x2="1079.1747" y2="510.31372"/>
<line stroke="#000000" x1="745.138" y1="588.51196" x2="756.71277" y2="627.5349"/>
<line stroke="#000000" x1="1073.4889" y1="491.13895" x2="1085.0604" y2="530.1628"/>
<line stroke="#000000" x1="745.138" y1="588.51196" x2="1073.4889" y2="491.13895"/>
<line stroke="#000000" x1="756.71277" y1="627.5349" x2="1085.0604" y2="530.1628"/>
<line stroke="#000000" x1="1070.6686" y1="834.98883" x2="1059.3314" y2="496.01117"/>
<line stroke="#000000" x1="1050.6798" y1="835.66" x2="1090.8573" y2="834.311"/>
<line stroke="#000000" x1="1039.3425" y1="496.6793" x2="1079.5203" y2="495.33636"/>
<line stroke="#000000" x1="1050.6798" y1="835.66" x2="1039.3425" y2="496.6793"/>
<line stroke="#000000" x1="1090.8573" y1="834.311" x2="1079.5203" y2="495.33636"/>
<line stroke="#000000" x1="321.79636" y1="360.0221" x2="515.2036" y2="139.97789"/>
<line stroke="#000000" x1="306.7747" y1="346.81796" x2="337.01804" y2="373.40204"/>
<line stroke="#000000" x1="500.18137" y1="126.7744" x2="530.4259" y2="153.35718"/>
<line stroke="#000000" x1="306.7747" y1="346.81796" x2="500.18137" y2="126.7744"/>
<line stroke="#000000" x1="337.01804" y1="373.40204" x2="530.4259" y2="153.35718"/>
<line stroke="#000000" x1="483.1437" y1="148.33363" x2="718.85626" y2="231.66637"/>
<line stroke="#000000" x1="476.478" y1="167.19016" x2="490.00943" y2="128.9113"/>
<line stroke="#000000" x1="712.19025" y1="250.52277" x2="725.7223" y2="212.24419"/>
<line stroke="#000000" x1="476.478" y1="167.19016" x2="712.19025" y2="250.52277"/>
<line stroke="#000000" x1="490.00943" y1="128.9113" x2="725.7223" y2="212.24419"/>
<line stroke="#000000" x1="698.1215" y1="205.08841" x2="726.8785" y2="509.9116"/>
<line stroke="#000000" x1="678.21014" y1="206.96896" x2="718.2329" y2="203.18896"/>
<line stroke="#000000" x1="706.9668" y1="511.78912" x2="746.9902" y2="508.0152"/>
<line stroke="#000000" x1="678.21014" y1="206.96896" x2="706.9668" y2="511.78912"/>
<line stroke="#000000" x1="718.2329" y1="203.18896" x2="746.9902" y2="508.0152"/>
<line stroke="#000000" x1="744.799" y1="487.17157" x2="460.20102" y2="527.8284"/>
<line stroke="#000000" x1="741.9708" y1="467.37256" x2="747.8272" y2="508.3708"/>
<line stroke="#000000" x1="457.3726" y1="508.02945" x2="463.22946" y2="549.0275"/>
<line stroke="#000000" x1="741.9708" y1="467.37256" x2="457.3726" y2="508.02945"/>
<line stroke="#000000" x1="747.8272" y1="508.3708" x2="463.22946" y2="549.0275"/>
<line stroke="#000000" x1="492.5466" y1="540.5751" x2="322.4534" y2="329.42493"/>
<line stroke="#000000" x1="476.972" y1="553.12225" x2="508.32123" y2="527.86676"/>
<line stroke="#000000" x1="306.87878" y1="341.97208" x2="338.22803" y2="316.71664"/>
<line stroke="#000000" x1="476.972" y1="553.12225" x2="306.87878" y2="341.97208"/>
<line stroke="#000000" x1="508.32123" y1="527.86676" x2="338.22803" y2="316.71664"/>
</g>
</svg>
