<svg xmlns="http://www.w3.org/2000/svg" width="1195.0px" height="920.0px" viewBox="0.0 0.0 1195.0 920.0">
<g>
<line stroke="#000000" x1="100.0" y1="107.0" x2="46.766754" y2="235.01544"/>
<line stroke="#000000" x1="100.0" y1="107.0" x2="404.07858" y2="107.23041"/>
<line stroke="#000000" x1="100.0" y1="107.0" x2="1072.3612" y2="91.059326"/>
<line stroke="#000000" x1="986.0" y1="754.0" x2="756.0569" y2="315.63544"/>
<line stroke="#000000" x1="986.0" y1="754.0" x2="1066.7454" y2="416.43082"/>
<line stroke="#000000" x1="986.0" y1="754.0" x2="501.09152" y2="779.1138"/>
<line stroke="#000000" x1="986.0" y1="754.0" x2="706.09467" y2="682.2388"/>
<line stroke="#000000" x1="165.0134" y1="496.23303" x2="46.766754" y2="235.01544"/>
<line stroke="#000000" x1="165.0134" y1="496.23303" x2="275.136" y2="460.86795"/>
<line stroke="#000000" x1="165.0134" y1="496.23303" x2="320.88678" y2="574.09033"/>
<line stroke="#000000" x1="165.0134" y1="496.23303" x2="501.09152" y2="779.1138"/>
<line stroke="#000000" x1="165.0134" y1="496.23303" x2="468.68634" y2="403.4853"/>
<line stroke="#000000" x1="46.766754" y1="235.01544" x2="100.0" y2="107.0"/>
<line stroke="#000000" x1="46.766754" y1="235.01544" x2="165.0134" y2="496.23303"/>
<line stroke="#000000" x1="46.766754" y1="235.01544" x2="404.07858" y2="107.23041"/>
<line stroke="#000000" x1="404.07858" y1="107.23041" x2="100.0" y2="107.0"/>
<line stroke="#000000" x1="404.07858" y1="107.23041" x2="46.766754" y2="235.01544"/>
<line stroke="#000000" x1="404.07858" y1="107.23041" x2="1072.3612" y2="91.059326"/>
<line stroke="#000000" x1="404.07858" y1="107.23041" x2="756.0569" y2="315.63544"/>
<line stroke="#000000" x1="404.07858" y1="107.23041" x2="715.9834" y2="419.10513"/>
<line stroke="#000000" x1="444.68182" y1="256.10132" x2="275.136" y2="460.86795"/>
<line stroke="#000000" x1="444.68182" y1="256.10132" x2="1072.3612" y2="91.059326"/>
<line stroke="#000000" x1="444.68182" y1="256.10132" x2="756.0569" y2="315.63544"/>
<line stroke="#000000" x1="444.68182" y1="256.10132" x2="1066.7454" y2="416.43082"/>
<line stroke="#000000" x1="444.68182" y1="256.10132" x2="320.88678" y2="574.09033"/>
<line stroke="#000000" x1="444.68182" y1="256.10132" x2="715.9834" y2="419.10513"/>
<line stroke="#000000" x1="444.68182" y1="256.10132" x2="468.68634" y2="403.4853"/>
<line stroke="#000000" x1="275.136" y1="460.86795" x2="165.0134" y2="496.23303"/>
<line stroke="#000000" x1="275.136" y1="460.86795" x2="444.68182" y2="256.10132"/>
<line stroke="#000000" x1="275.136" y1="460.86795" x2="1072.3612" y2="91.059326"/>
<line stroke="#000000" x1="275.136" y1="460.86795" x2="320.88678" y2="574.09033"/>
<line stroke="#000000" x1="275.136" y1="460.86795" x2="468.68634" y2="403.4853"/>
<line stroke="#000000" x1="1072.3612" y1="91.059326" x2="100.0" y2="107.0"/>
<line stroke="#000000" x1="1072.3612" y1="91.059326" x2="404.07858" y2="107.23041"/>
<line stroke="#000000" x1="1072.3612" y1="91.059326" x2="444.68182" y2="256.10132"/>
<line stroke="#000000" x1="1072.3612" y1="91.059326" x2="275.136" y2="460.86795"/>
<line stroke="#000000" x1="1072.3612" y1="91.059326" x2="756.0569" y2="315.63544"/>
<line stroke="#000000" x1="1072.3612" y1="91.059326" x2="1066.7454" y2="416.43082"/>
<line stroke="#000000" x1="756.0569" y1="315.63544" x2="986.0" y2="754.0"/>
<line stroke="#000000" x1="756.0569" y1="315.63544" x2="404.07858" y2="107.23041"/>
<line stroke="#000000" x1="756.0569" y1="315.63544" x2="444.68182" y2="256.10132"/>
<line stroke="#000000" x1="756.0569" y1="315.63544" x2="1072.3612" y2="91.059326"/>
<line stroke="#000000" x1="756.0569" y1="315.63544" x2="1066.7454" y2="416.43082"/>
<line stroke="#000000" x1="756.0569" y1="315.63544" x2="706.09467" y2="682.2388"/>
<line stroke="#000000" x1="756.0569" y1="315.63544" x2="715.9834" y2="419.10513"/>
<line stroke="#000000" x1="1066.7454" y1="416.43082" x2="986.0" y2="754.0"/>
<line stroke="#000000" x1="1066.7454" y1="416.43082" x2="444.68182" y2="256.10132"/>
<line stroke="#000000" x1="1066.7454" y1="416.43082" x2="1072.3612" y2="91.059326"/>
<line stroke="#000000" x1="1066.7454" y1="416.43082" x2="756.0569" y2="315.63544"/>
<line stroke="#000000" x1="1066.7454" y1="416.43082" x2="706.09467" y2="682.2388"/>
<line stroke="#000000" x1="1066.7454" y1="416.43082" x2="715.9834" y2="419.10513"/>
<line stroke="#000000" x1="320.88678" y1="574.09033" x2="165.0134" y2="496.23303"/>
<line stroke="#000000" x1="320.88678" y1="574.09033" x2="444.68182" y2="256.10132"/>
<line stroke="#000000" x1="320.88678" y1="574.09033" x2="275.136" y2="460.86795"/>
<line stroke="#000000" x1="320.88678" y1="574.09033" x2="501.09152" y2="779.1138"/>
<line stroke="#000000" x1="320.88678" y1="574.09033" x2="468.68634" y2="403.4853"/>
<line stroke="#000000" x1="501.09152" y1="779.1138" x2="986.0" y2="754.0"/>
<line stroke="#000000" x1="501.09152" y1="779.1138" x2="165.0134" y2="496.23303"/>
<line stroke="#000000" x1="501.09152" y1="779.1138" x2="320.88678" y2="574.09033"/>
<line stroke="#000000" x1="706.09467" y1="682.2388" x2="986.0" y2="754.0"/>
<line stroke="#000000" x1="706.09467" y1="682.2388" x2="756.0569" y2="315.63544"/>
<line stroke="#000000" x1="706.09467" y1="682.2388" x2="1066.7454" y2="416.43082"/>
<line stroke="#000000" x1="715.9834" y1="419.10513" x2="404.07858" y2="107.23041"/>
<line stroke="#000000" x1="715.9834" y1="419.10513" x2="444.68182" y2="256.10132"/>
<line stroke="#000000" x1="715.9834" y1="419.10513" x2="756.0569" y2="315.63544"/>
<line stroke="#000000" x1="715.9834" y1="419.10513" x2="1066.7454" y2="416.43082"/>
<line stroke="#000000" x1="468.68634" y1="403.4853" x2="165.0134" y2="496.23303"/>
<line stroke="#000000" x1="468.68634" y1="403.4853" x2="444.68182" y2="256.10132"/>
<line stroke="#000000" x1="468.68634" y1="403.4853" x2="275.136" y2="460.86795"/>
<line stroke="#000000" x1="468.68634" y1="403.4853" x2="320.88678" y2="574.09033"/>
</g>
</svg>
