<svg xmlns="http://www.w3.org/2000/svg" width="1195.0px" height="920.0px" viewBox="0.0 0.0 1195.0 920.0">
<g>
<line stroke="#000000" x1="170.0" y1="437.0" x2="60.0" y2="680.0"/>
<line stroke="#000000" x1="165.0134" y1="423.76697" x2="183.33441" y2="432.05814"/>
<line stroke="#000000" x1="46.766754" y1="684.98456" x2="65.08544" y2="693.2808"/>
<line stroke="#000000" x1="165.0134" y1="423.76697" x2="46.766754" y2="684.98456"/>
<line stroke="#000000" x1="183.33441" y1="432.05814" x2="65.08544" y2="693.2808"/>
<line stroke="#000000" x1="60.0" y1="680.0" x2="398.0" y2="800.0"/>
<line stroke="#000000" x1="47.230106" y1="686.0778" x2="54.022472" y2="666.94916"/>
<line stroke="#000000" x1="404.07858" y1="812.7696" x2="410.86884" y2="793.6401"/>
<line stroke="#000000" x1="47.230106" y1="686.0778" x2="404.07858" y2="812.7696"/>
<line stroke="#000000" x1="54.022472" y1="666.94916" x2="410.86884" y2="793.6401"/>
<line stroke="#000000" x1="398.0" y1="800.0" x2="450.0" y2="677.0"/>
<line stroke="#000000" x1="384.89392" y1="805.32007" x2="403.41818" y2="813.14355"/>
<line stroke="#000000" x1="444.68182" y1="663.8987" x2="463.2061" y2="671.72217"/>
<line stroke="#000000" x1="384.89392" y1="805.32007" x2="444.68182" y2="663.8987"/>
<line stroke="#000000" x1="403.41818" y1="813.14355" x2="463.2061" y2="671.72217"/>
<line stroke="#000000" x1="450.0" y1="677.0" x2="235.0" y2="595.0"/>
<line stroke="#000000" x1="455.77917" y1="689.90674" x2="463.00784" y2="670.9582"/>
<line stroke="#000000" x1="222.09288" y1="600.77997" x2="229.32011" y2="581.83075"/>
<line stroke="#000000" x1="455.77917" y1="689.90674" x2="222.09288" y2="600.77997"/>
<line stroke="#000000" x1="463.00784" y1="670.9582" x2="229.32011" y2="581.83075"/>
<line stroke="#000000" x1="235.0" y1="595.0" x2="281.0" y2="472.0"/>
<line stroke="#000000" x1="222.13112" y1="600.86237" x2="240.96312" y2="607.90784"/>
<line stroke="#000000" x1="275.136" y1="459.13205" x2="293.96985" y2="466.1725"/>
<line stroke="#000000" x1="222.13112" y1="600.86237" x2="275.136" y2="459.13205"/>
<line stroke="#000000" x1="240.96312" y1="607.90784" x2="293.96985" y2="466.1725"/>
<line stroke="#000000" x1="281.0" y1="472.0" x2="170.0" y2="437.0"/>
<line stroke="#000000" x1="287.52917" y1="484.5441" x2="293.64505" y2="465.15323"/>
<line stroke="#000000" x1="157.45547" y1="443.52985" x2="163.57028" y2="424.1386"/>
<line stroke="#000000" x1="287.52917" y1="484.5441" x2="157.45547" y2="443.52985"/>
<line stroke="#000000" x1="293.64505" y1="465.15323" x2="163.57028" y2="424.1386"/>
<line stroke="#000000" x1="1070.0" y1="815.0" x2="770.0" y2="602.0"/>
<line stroke="#000000" x1="1072.3612" y1="828.9407" x2="1084.0464" y2="812.49713"/>
<line stroke="#000000" x1="756.0569" y1="604.36456" x2="767.7355" y2="587.91614"/>
<line stroke="#000000" x1="1072.3612" y1="828.9407" x2="756.0569" y2="604.36456"/>
<line stroke="#000000" x1="1084.0464" y1="812.49713" x2="767.7355" y2="587.91614"/>
<line stroke="#000000" x1="770.0" y1="602.0" x2="1060.0" y2="516.0"/>
<line stroke="#000000" x1="757.56976" y1="595.25574" x2="763.3555" y2="614.7677"/>
<line stroke="#000000" x1="1066.7454" y1="503.56918" x2="1072.5292" y2="523.0818"/>
<line stroke="#000000" x1="757.56976" y1="595.25574" x2="1066.7454" y2="503.56918"/>
<line stroke="#000000" x1="763.3555" y1="614.7677" x2="1072.5292" y2="523.0818"/>
<line stroke="#000000" x1="1070.0" y1="815.0" x2="1060.0" y2="516.0"/>
<line stroke="#000000" x1="1060.3396" y1="825.32385" x2="1080.4288" y2="824.6616"/>
<line stroke="#000000" x1="1049.6714" y1="506.34116" x2="1069.7601" y2="505.66666"/>
<line stroke="#000000" x1="1060.3396" y1="825.32385" x2="1049.6714" y2="506.34116"/>
<line stroke="#000000" x1="1080.4288" y1="824.6616" x2="1069.7601" y2="505.66666"/>
<line stroke="#000000" x1="335.0" y1="345.0" x2="502.0" y2="155.00002"/>
<line stroke="#000000" x1="320.88678" y1="345.90964" x2="336.0096" y2="359.20035"/>
<line stroke="#000000" x1="501.09152" y1="140.88625" x2="516.2121" y2="154.17958"/>
<line stroke="#000000" x1="320.88678" y1="345.90964" x2="501.09152" y2="140.88625"/>
<line stroke="#000000" x1="336.0096" y1="359.20035" x2="516.2121" y2="154.17958"/>
<line stroke="#000000" x1="502.0" y1="155.0" x2="700.0" y2="225.0"/>
<line stroke="#000000" x1="489.23782" y1="161.09467" x2="496.00592" y2="141.95619"/>
<line stroke="#000000" x1="706.09467" y1="237.76122" x2="712.86163" y2="218.62238"/>
<line stroke="#000000" x1="489.23782" y1="161.09467" x2="706.09467" y2="237.76122"/>
<line stroke="#000000" x1="496.00592" y1="141.95619" x2="712.86163" y2="218.62238"/>
<line stroke="#000000" x1="700.0" y1="225.0" x2="725.0" y2="490.0"/>
<line stroke="#000000" x1="689.1051" y1="215.98477" x2="709.11646" y2="214.0942"/>
<line stroke="#000000" x1="715.9834" y1="500.89487" x2="735.995" y2="499.00732"/>
<line stroke="#000000" x1="689.1051" y1="215.98477" x2="715.9834" y2="500.89487"/>
<line stroke="#000000" x1="709.11646" y1="214.0942" x2="735.995" y2="499.00732"/>
<line stroke="#000000" x1="725.0" y1="490.0" x2="480.0" y2="525.0"/>
<line stroke="#000000" x1="733.48535" y1="478.68628" x2="736.4136" y2="499.18515"/>
<line stroke="#000000" x1="468.68634" y1="516.5147" x2="471.61465" y2="537.01373"/>
<line stroke="#000000" x1="733.48535" y1="478.68628" x2="468.68634" y2="516.5147"/>
<line stroke="#000000" x1="736.4136" y1="499.18515" x2="471.61465" y2="537.01373"/>
<line stroke="#000000" x1="480.0" y1="525.0" x2="335.0" y2="345.0"/>
<line stroke="#000000" x1="478.48828" y1="539.06396" x2="494.1583" y2="526.4305"/>
<line stroke="#000000" x1="320.94055" y1="343.4875" x2="336.61288" y2="330.85684"/>
<line stroke="#000000" x1="478.48828" y1="539.06396" x2="320.94055" y2="343.4875"/>
<line stroke="#000000" x1="494.1583" y1="526.4305" x2="336.61288" y2="330.85684"/>
</g>
</svg>
