<svg xmlns="http://www.w3.org/2000/svg" width="1195.0px" height="920.0px" viewBox="0.0 0.0 1195.0 920.0">
<g>
<line stroke="#000000" x1="170.0" y1="483.0" x2="60.0" y2="240.0"/>
<line stroke="#000000" x1="165.0134" y1="496.23303" x2="183.33441" y2="487.94186"/>
<line stroke="#000000" x1="46.766754" y1="235.01544" x2="65.08544" y2="226.71918"/>
<line stroke="#000000" x1="165.0134" y1="496.23303" x2="46.766754" y2="235.01544"/>
<line stroke="#000000" x1="183.33441" y1="487.94186" x2="65.08544" y2="226.71918"/>
<line stroke="#000000" x1="60.0" y1="240.0" x2="398.0" y2="120.0"/>
<line stroke="#000000" x1="47.230106" y1="233.92218" x2="54.022472" y2="253.05084"/>
<line stroke="#000000" x1="404.07858" y1="107.23041" x2="410.86884" y2="126.359924"/>
<line stroke="#000000" x1="47.230106" y1="233.92218" x2="404.07858" y2="107.23041"/>
<line stroke="#000000" x1="54.022472" y1="253.05084" x2="410.86884" y2="126.359924"/>
<line stroke="#000000" x1="398.0" y1="120.0" x2="450.0" y2="243.0"/>
<line stroke="#000000" x1="384.89392" y1="114.67993" x2="403.41818" y2="106.856445"/>
<line stroke="#000000" x1="444.68182" y1="256.10132" x2="463.2061" y2="248.27783"/>
<line stroke="#000000" x1="384.89392" y1="114.67993" x2="444.68182" y2="256.10132"/>
<line stroke="#000000" x1="403.41818" y1="106.856445" x2="463.2061" y2="248.27783"/>
<line stroke="#000000" x1="450.0" y1="243.0" x2="235.0" y2="325.0"/>
<line stroke="#000000" x1="455.77917" y1="230.09326" x2="463.00784" y2="249.04181"/>
<line stroke="#000000" x1="222.09288" y1="319.22003" x2="229.32011" y2="338.16925"/>
<line stroke="#000000" x1="455.77917" y1="230.09326" x2="222.09288" y2="319.22003"/>
<line stroke="#000000" x1="463.00784" y1="249.04181" x2="229.32011" y2="338.16925"/>
<line stroke="#000000" x1="235.0" y1="325.0" x2="281.0" y2="448.0"/>
<line stroke="#000000" x1="222.13112" y1="319.13763" x2="240.96312" y2="312.09216"/>
<line stroke="#000000" x1="275.136" y1="460.86795" x2="293.96985" y2="453.8275"/>
<line stroke="#000000" x1="222.13112" y1="319.13763" x2="275.136" y2="460.86795"/>
<line stroke="#000000" x1="240.96312" y1="312.09216" x2="293.96985" y2="453.8275"/>
<line stroke="#000000" x1="281.0" y1="448.0" x2="170.0" y2="483.0"/>
<line stroke="#000000" x1="287.52917" y1="435.4559" x2="293.64505" y2="454.84677"/>
<line stroke="#000000" x1="157.45547" y1="476.47015" x2="163.57028" y2="495.8614"/>
<line stroke="#000000" x1="287.52917" y1="435.4559" x2="157.45547" y2="476.47015"/>
<line stroke="#000000" x1="293.64505" y1="454.84677" x2="163.57028" y2="495.8614"/>
<line stroke="#000000" x1="1070.0" y1="105.0" x2="770.0" y2="318.0"/>
<line stroke="#000000" x1="1072.3612" y1="91.059326" x2="1084.0464" y2="107.50287"/>
<line stroke="#000000" x1="756.0569" y1="315.63544" x2="767.7355" y2="332.08386"/>
<line stroke="#000000" x1="1072.3612" y1="91.059326" x2="756.0569" y2="315.63544"/>
<line stroke="#000000" x1="1084.0464" y1="107.50287" x2="767.7355" y2="332.08386"/>
<line stroke="#000000" x1="770.0" y1="318.0" x2="1060.0" y2="404.0"/>
<line stroke="#000000" x1="757.56976" y1="324.74426" x2="763.3555" y2="305.2323"/>
<line stroke="#000000" x1="1066.7454" y1="416.43082" x2="1072.5292" y2="396.9182"/>
<line stroke="#000000" x1="757.56976" y1="324.74426" x2="1066.7454" y2="416.43082"/>
<line stroke="#000000" x1="763.3555" y1="305.2323" x2="1072.5292" y2="396.9182"/>
<line stroke="#000000" x1="1070.0" y1="105.0" x2="1060.0" y2="404.0"/>
<line stroke="#000000" x1="1060.3396" y1="94.67615" x2="1080.4288" y2="95.33838"/>
<line stroke="#000000" x1="1049.6714" y1="413.65884" x2="1069.7601" y2="414.33334"/>
<line stroke="#000000" x1="1060.3396" y1="94.67615" x2="1049.6714" y2="413.65884"/>
<line stroke="#000000" x1="1080.4288" y1="95.33838" x2="1069.7601" y2="414.33334"/>
<line stroke="#000000" x1="335.0" y1="575.0" x2="502.0" y2="765.0"/>
<line stroke="#000000" x1="320.88678" y1="574.09033" x2="336.0096" y2="560.7997"/>
<line stroke="#000000" x1="501.09152" y1="779.1138" x2="516.2121" y2="765.82043"/>
<line stroke="#000000" x1="320.88678" y1="574.09033" x2="501.09152" y2="779.1138"/>
<line stroke="#000000" x1="336.0096" y1="560.7997" x2="516.2121" y2="765.82043"/>
<line stroke="#000000" x1="502.0" y1="765.0" x2="700.0" y2="695.0"/>
<line stroke="#000000" x1="489.23782" y1="758.90533" x2="496.00592" y2="778.0438"/>
<line stroke="#000000" x1="706.09467" y1="682.2388" x2="712.86163" y2="701.3776"/>
<line stroke="#000000" x1="489.23782" y1="758.90533" x2="706.09467" y2="682.2388"/>
<line stroke="#000000" x1="496.00592" y1="778.0438" x2="712.86163" y2="701.3776"/>
<line stroke="#000000" x1="700.0" y1="695.0" x2="725.0" y2="430.0"/>
<line stroke="#000000" x1="689.1051" y1="704.01526" x2="709.11646" y2="705.9058"/>
<line stroke="#000000" x1="715.9834" y1="419.10513" x2="735.995" y2="420.99268"/>
<line stroke="#000000" x1="689.1051" y1="704.01526" x2="715.9834" y2="419.10513"/>
<line stroke="#000000" x1="709.11646" y1="705.9058" x2="735.995" y2="420.99268"/>
<line stroke="#000000" x1="725.0" y1="430.0" x2="480.0" y2="395.0"/>
<line stroke="#000000" x1="733.48535" y1="441.31372" x2="736.4136" y2="420.81485"/>
<line stroke="#000000" x1="468.68634" y1="403.4853" x2="471.61465" y2="382.98627"/>
<line stroke="#000000" x1="733.48535" y1="441.31372" x2="468.68634" y2="403.4853"/>
<line stroke="#000000" x1="736.4136" y1="420.81485" x2="471.61465" y2="382.98627"/>
<line stroke="#000000" x1="480.0" y1="395.0" x2="335.0" y2="575.0"/>
<line stroke="#000000" x1="478.48828" y1="380.93604" x2="494.1583" y2="393.56952"/>
<line stroke="#000000" x1="320.94055" y1="576.5125" x2="336.61288" y2="589.1432"/>
<line stroke="#000000" x1="478.48828" y1="380.93604" x2="320.94055" y2="576.5125"/>
<line stroke="#000000" x1="494.1583" y1="393.56952" x2="336.61288" y2="589.1432"/>
</g>
</svg>
