<svg xmlns="http://www.w3.org/2000/svg" width="1000.0px" height="1000.0px" viewBox="0.0 0.0 1000.0 1000.0">
<g>
<line stroke="#000000" x1="391.0" y1="604.0" x2="250.0" y2="702.0"/>
<line stroke="#000000" x1="391.0" y1="604.0" x2="330.0" y2="705.0"/>
<line stroke="#000000" x1="391.0" y1="604.0" x2="310.0" y2="683.0"/>
<line stroke="#000000" x1="310.0" y1="683.0" x2="320.0" y2="948.0"/>
<line stroke="#000000" x1="320.0" y1="948.0" x2="510.0" y2="779.0"/>
<line stroke="#000000" x1="391.0" y1="604.0" x2="310.0" y2="683.0"/>
<line stroke="#000000" x1="310.0" y1="683.0" x2="320.0" y2="948.0"/>
<line stroke="#000000" x1="320.0" y1="948.0" x2="484.0" y2="833.0"/>
<line stroke="#000000" x1="484.0" y1="833.0" x2="430.0" y2="712.0"/>
<line stroke="#000000" x1="391.0" y1="604.0" x2="310.0" y2="683.0"/>
<line stroke="#000000" x1="310.0" y1="683.0" x2="320.0" y2="948.0"/>
<line stroke="#000000" x1="320.0" y1="948.0" x2="463.0" y2="724.0"/>
<line stroke="#000000" x1="463.0" y1="724.0" x2="631.0" y2="759.0"/>
<line stroke="#000000" x1="391.0" y1="604.0" x2="310.0" y2="683.0"/>
<line stroke="#000000" x1="310.0" y1="683.0" x2="320.0" y2="948.0"/>
<line stroke="#000000" x1="320.0" y1="948.0" x2="463.0" y2="724.0"/>
<line stroke="#000000" x1="463.0" y1="724.0" x2="641.0" y2="780.0"/>
<line stroke="#000000" x1="641.0" y1="780.0" x2="496.0" y2="830.0"/>
<line stroke="#000000" x1="496.0" y1="830.0" x2="608.0" y2="951.0"/>
<line stroke="#000000" x1="608.0" y1="951.0" x2="598.0" y2="836.0"/>
<line stroke="#000000" x1="598.0" y1="836.0" x2="723.0" y2="933.0"/>
<line stroke="#000000" x1="723.0" y1="933.0" x2="659.0" y2="750.0"/>
<line stroke="#000000" x1="391.0" y1="604.0" x2="310.0" y2="683.0"/>
<line stroke="#000000" x1="310.0" y1="683.0" x2="320.0" y2="948.0"/>
<line stroke="#000000" x1="320.0" y1="948.0" x2="463.0" y2="724.0"/>
<line stroke="#000000" x1="463.0" y1="724.0" x2="641.0" y2="780.0"/>
<line stroke="#000000" x1="641.0" y1="780.0" x2="502.0" y2="836.0"/>
<line stroke="#000000" x1="502.0" y1="836.0" x2="608.0" y2="951.0"/>
<line stroke="#000000" x1="608.0" y1="951.0" x2="598.0" y2="836.0"/>
<line stroke="#000000" x1="598.0" y1="836.0" x2="723.0" y2="933.0"/>
<line stroke="#000000" x1="723.0" y1="933.0" x2="609.0" y2="755.0"/>
<line stroke="#000000" x1="609.0" y1="755.0" x2="495.0" y2="909.0"/>
<line stroke="#000000" x1="495.0" y1="909.0" x2="725.0" y2="780.0"/>
<line stroke="#000000" x1="391.0" y1="604.0" x2="310.0" y2="683.0"/>
<line stroke="#000000" x1="310.0" y1="683.0" x2="320.0" y2="948.0"/>
<line stroke="#000000" x1="320.0" y1="948.0" x2="508.0" y2="784.0"/>
<line stroke="#000000" x1="508.0" y1="784.0" x2="430.0" y2="848.0"/>
<line stroke="#000000" x1="430.0" y1="848.0" x2="463.0" y2="724.0"/>
<line stroke="#000000" x1="463.0" y1="724.0" x2="641.0" y2="780.0"/>
<line stroke="#000000" x1="641.0" y1="780.0" x2="525.0" y2="754.0"/>
<line stroke="#000000" x1="525.0" y1="754.0" x2="608.0" y2="951.0"/>
<line stroke="#000000" x1="608.0" y1="951.0" x2="598.0" y2="836.0"/>
<line stroke="#000000" x1="598.0" y1="836.0" x2="723.0" y2="933.0"/>
<line stroke="#000000" x1="723.0" y1="933.0" x2="609.0" y2="755.0"/>
<line stroke="#000000" x1="609.0" y1="755.0" x2="495.0" y2="909.0"/>
<line stroke="#000000" x1="495.0" y1="909.0" x2="633.0" y2="804.0"/>
<line stroke="#000000" x1="633.0" y1="804.0" x2="680.0" y2="951.0"/>
<line stroke="#000000" x1="680.0" y1="951.0" x2="723.0" y2="830.0"/>
<line stroke="#000000" x1="391.0" y1="604.0" x2="310.0" y2="683.0"/>
<line stroke="#000000" x1="310.0" y1="683.0" x2="320.0" y2="948.0"/>
<line stroke="#000000" x1="320.0" y1="948.0" x2="492.0" y2="821.0"/>
<line stroke="#000000" x1="492.0" y1="821.0" x2="463.0" y2="724.0"/>
<line stroke="#000000" x1="463.0" y1="724.0" x2="641.0" y2="780.0"/>
<line stroke="#000000" x1="641.0" y1="780.0" x2="502.0" y2="836.0"/>
<line stroke="#000000" x1="502.0" y1="836.0" x2="608.0" y2="951.0"/>
<line stroke="#000000" x1="608.0" y1="951.0" x2="710.0" y2="782.0"/>
<line stroke="#000000" x1="710.0" y1="782.0" x2="608.0" y2="779.0"/>
<line stroke="#000000" x1="608.0" y1="779.0" x2="495.0" y2="909.0"/>
<line stroke="#000000" x1="495.0" y1="909.0" x2="724.0" y2="787.0"/>
<line stroke="#000000" x1="724.0" y1="787.0" x2="577.0" y2="936.0"/>
<line stroke="#000000" x1="577.0" y1="936.0" x2="719.0" y2="890.0"/>
<line stroke="#000000" x1="391.0" y1="604.0" x2="310.0" y2="683.0"/>
<line stroke="#000000" x1="310.0" y1="683.0" x2="320.0" y2="948.0"/>
<line stroke="#000000" x1="320.0" y1="948.0" x2="369.0" y2="842.0"/>
<line stroke="#000000" x1="369.0" y1="842.0" x2="506.0" y2="794.0"/>
<line stroke="#000000" x1="506.0" y1="794.0" x2="641.0" y2="780.0"/>
<line stroke="#000000" x1="641.0" y1="780.0" x2="525.0" y2="754.0"/>
<line stroke="#000000" x1="525.0" y1="754.0" x2="723.0" y2="933.0"/>
<line stroke="#000000" x1="723.0" y1="933.0" x2="710.0" y2="782.0"/>
<line stroke="#000000" x1="710.0" y1="782.0" x2="609.0" y2="753.0"/>
<line stroke="#000000" x1="609.0" y1="753.0" x2="495.0" y2="909.0"/>
<line stroke="#000000" x1="495.0" y1="909.0" x2="633.0" y2="804.0"/>
<line stroke="#000000" x1="633.0" y1="804.0" x2="577.0" y2="936.0"/>
<line stroke="#000000" x1="577.0" y1="936.0" x2="714.0" y2="962.0"/>
<line stroke="#000000" x1="714.0" y1="962.0" x2="668.0" y2="852.0"/>
<line stroke="#000000" x1="668.0" y1="852.0" x2="756.0" y2="932.0"/>
<line stroke="#000000" x1="756.0" y1="932.0" x2="722.0" y2="835.0"/>
<line stroke="#000000" x1="722.0" y1="835.0" x2="476.0" y2="889.0"/>
<line stroke="#000000" x1="476.0" y1="889.0" x2="623.0" y2="890.0"/>
<line stroke="#000000" x1="623.0" y1="890.0" x2="508.0" y2="992.0"/>
<line stroke="#000000" x1="508.0" y1="992.0" x2="717.0" y2="906.0"/>
<line stroke="#000000" x1="717.0" y1="906.0" x2="600.0" y2="841.0"/>
<line stroke="#000000" x1="600.0" y1="841.0" x2="498.0" y2="810.0"/>
<line stroke="#000000" x1="498.0" y1="810.0" x2="600.0" y2="957.0"/>
<line stroke="#000000" x1="391.0" y1="604.0" x2="281.0" y2="708.0"/>
<line stroke="#000000" x1="281.0" y1="708.0" x2="320.0" y2="948.0"/>
<line stroke="#000000" x1="320.0" y1="948.0" x2="463.0" y2="724.0"/>
<line stroke="#000000" x1="463.0" y1="724.0" x2="641.0" y2="780.0"/>
<line stroke="#000000" x1="641.0" y1="780.0" x2="525.0" y2="754.0"/>
<line stroke="#000000" x1="525.0" y1="754.0" x2="608.0" y2="951.0"/>
<line stroke="#000000" x1="608.0" y1="951.0" x2="598.0" y2="836.0"/>
<line stroke="#000000" x1="598.0" y1="836.0" x2="652.0" y2="950.0"/>
<line stroke="#000000" x1="652.0" y1="950.0" x2="710.0" y2="782.0"/>
<line stroke="#000000" x1="710.0" y1="782.0" x2="609.0" y2="755.0"/>
<line stroke="#000000" x1="609.0" y1="755.0" x2="495.0" y2="909.0"/>
<line stroke="#000000" x1="495.0" y1="909.0" x2="633.0" y2="804.0"/>
<line stroke="#000000" x1="633.0" y1="804.0" x2="626.0" y2="948.0"/>
<line stroke="#000000" x1="626.0" y1="948.0" x2="646.0" y2="809.0"/>
<line stroke="#000000" x1="646.0" y1="809.0" x2="594.0" y2="943.0"/>
<line stroke="#000000" x1="594.0" y1="943.0" x2="714.0" y2="962.0"/>
<line stroke="#000000" x1="714.0" y1="962.0" x2="668.0" y2="852.0"/>
<line stroke="#000000" x1="668.0" y1="852.0" x2="756.0" y2="932.0"/>
<line stroke="#000000" x1="756.0" y1="932.0" x2="722.0" y2="837.0"/>
<line stroke="#000000" x1="722.0" y1="837.0" x2="476.0" y2="889.0"/>
<line stroke="#000000" x1="476.0" y1="889.0" x2="623.0" y2="890.0"/>
<line stroke="#000000" x1="623.0" y1="890.0" x2="508.0" y2="992.0"/>
<line stroke="#000000" x1="508.0" y1="992.0" x2="614.0" y2="917.0"/>
<line stroke="#000000" x1="614.0" y1="917.0" x2="729.0" y2="947.0"/>
<line stroke="#000000" x1="729.0" y1="947.0" x2="582.0" y2="808.0"/>
<line stroke="#000000" x1="582.0" y1="808.0" x2="460.0" y2="855.0"/>
<line stroke="#000000" x1="460.0" y1="855.0" x2="560.0" y2="948.0"/>
<line stroke="#000000" x1="560.0" y1="948.0" x2="718.0" y2="890.0"/>
<line stroke="#000000" x1="718.0" y1="890.0" x2="680.0" y2="787.0"/>
<line stroke="#000000" x1="680.0" y1="787.0" x2="470.0" y2="889.0"/>
<line stroke="#000000" x1="391.0" y1="604.0" x2="310.0" y2="683.0"/>
<line stroke="#000000" x1="310.0" y1="683.0" x2="320.0" y2="948.0"/>
<line stroke="#000000" x1="320.0" y1="948.0" x2="369.0" y2="842.0"/>
<line stroke="#000000" x1="369.0" y1="842.0" x2="499.0" y2="807.0"/>
<line stroke="#000000" x1="499.0" y1="807.0" x2="448.0" y2="716.0"/>
<line stroke="#000000" x1="448.0" y1="716.0" x2="641.0" y2="780.0"/>
<line stroke="#000000" x1="641.0" y1="780.0" x2="525.0" y2="754.0"/>
<line stroke="#000000" x1="525.0" y1="754.0" x2="631.0" y2="759.0"/>
<line stroke="#000000" x1="631.0" y1="759.0" x2="487.0" y2="822.0"/>
<line stroke="#000000" x1="487.0" y1="822.0" x2="652.0" y2="950.0"/>
<line stroke="#000000" x1="652.0" y1="950.0" x2="710.0" y2="782.0"/>
<line stroke="#000000" x1="710.0" y1="782.0" x2="609.0" y2="755.0"/>
<line stroke="#000000" x1="609.0" y1="755.0" x2="495.0" y2="909.0"/>
<line stroke="#000000" x1="495.0" y1="909.0" x2="633.0" y2="804.0"/>
<line stroke="#000000" x1="633.0" y1="804.0" x2="658.0" y2="953.0"/>
<line stroke="#000000" x1="658.0" y1="953.0" x2="668.0" y2="852.0"/>
<line stroke="#000000" x1="668.0" y1="852.0" x2="756.0" y2="932.0"/>
<line stroke="#000000" x1="756.0" y1="932.0" x2="722.0" y2="832.0"/>
<line stroke="#000000" x1="722.0" y1="832.0" x2="476.0" y2="889.0"/>
<line stroke="#000000" x1="476.0" y1="889.0" x2="710.0" y2="967.0"/>
<line stroke="#000000" x1="710.0" y1="967.0" x2="600.0" y2="841.0"/>
<line stroke="#000000" x1="600.0" y1="841.0" x2="456.0" y2="889.0"/>
<line stroke="#000000" x1="456.0" y1="889.0" x2="718.0" y2="890.0"/>
<line stroke="#000000" x1="718.0" y1="890.0" x2="686.0" y2="794.0"/>
<line stroke="#000000" x1="686.0" y1="794.0" x2="564.0" y2="765.0"/>
<line stroke="#000000" x1="564.0" y1="765.0" x2="510.0" y2="944.0"/>
<line stroke="#000000" x1="391.0" y1="604.0" x2="281.0" y2="708.0"/>
<line stroke="#000000" x1="281.0" y1="708.0" x2="320.0" y2="948.0"/>
<line stroke="#000000" x1="320.0" y1="948.0" x2="463.0" y2="724.0"/>
<line stroke="#000000" x1="463.0" y1="724.0" x2="560.0" y2="808.0"/>
<line stroke="#000000" x1="560.0" y1="808.0" x2="608.0" y2="951.0"/>
<line stroke="#000000" x1="608.0" y1="951.0" x2="601.0" y2="835.0"/>
<line stroke="#000000" x1="601.0" y1="835.0" x2="652.0" y2="950.0"/>
<line stroke="#000000" x1="652.0" y1="950.0" x2="710.0" y2="782.0"/>
<line stroke="#000000" x1="710.0" y1="782.0" x2="609.0" y2="755.0"/>
<line stroke="#000000" x1="609.0" y1="755.0" x2="495.0" y2="909.0"/>
<line stroke="#000000" x1="495.0" y1="909.0" x2="633.0" y2="804.0"/>
<line stroke="#000000" x1="633.0" y1="804.0" x2="626.0" y2="948.0"/>
<line stroke="#000000" x1="626.0" y1="948.0" x2="646.0" y2="809.0"/>
<line stroke="#000000" x1="646.0" y1="809.0" x2="582.0" y2="937.0"/>
<line stroke="#000000" x1="582.0" y1="937.0" x2="714.0" y2="962.0"/>
<line stroke="#000000" x1="714.0" y1="962.0" x2="668.0" y2="852.0"/>
<line stroke="#000000" x1="668.0" y1="852.0" x2="756.0" y2="932.0"/>
<line stroke="#000000" x1="756.0" y1="932.0" x2="722.0" y2="837.0"/>
<line stroke="#000000" x1="722.0" y1="837.0" x2="476.0" y2="889.0"/>
<line stroke="#000000" x1="476.0" y1="889.0" x2="623.0" y2="890.0"/>
<line stroke="#000000" x1="623.0" y1="890.0" x2="508.0" y2="992.0"/>
<line stroke="#000000" x1="508.0" y1="992.0" x2="614.0" y2="917.0"/>
<line stroke="#000000" x1="614.0" y1="917.0" x2="731.0" y2="944.0"/>
<line stroke="#000000" x1="731.0" y1="944.0" x2="564.0" y2="765.0"/>
<line stroke="#000000" x1="564.0" y1="765.0" x2="460.0" y2="855.0"/>
<line stroke="#000000" x1="460.0" y1="855.0" x2="558.0" y2="912.0"/>
<line stroke="#000000" x1="558.0" y1="912.0" x2="715.0" y2="861.0"/>
<line stroke="#000000" x1="715.0" y1="861.0" x2="568.0" y2="763.0"/>
<line stroke="#000000" x1="568.0" y1="763.0" x2="454.0" y2="875.0"/>
<line stroke="#000000" x1="391.0" y1="604.0" x2="281.0" y2="708.0"/>
<line stroke="#000000" x1="281.0" y1="708.0" x2="320.0" y2="948.0"/>
<line stroke="#000000" x1="320.0" y1="948.0" x2="463.0" y2="724.0"/>
<line stroke="#000000" x1="463.0" y1="724.0" x2="560.0" y2="808.0"/>
<line stroke="#000000" x1="560.0" y1="808.0" x2="608.0" y2="951.0"/>
<line stroke="#000000" x1="608.0" y1="951.0" x2="598.0" y2="836.0"/>
<line stroke="#000000" x1="598.0" y1="836.0" x2="652.0" y2="950.0"/>
<line stroke="#000000" x1="652.0" y1="950.0" x2="710.0" y2="782.0"/>
<line stroke="#000000" x1="710.0" y1="782.0" x2="609.0" y2="755.0"/>
<line stroke="#000000" x1="609.0" y1="755.0" x2="495.0" y2="909.0"/>
<line stroke="#000000" x1="495.0" y1="909.0" x2="633.0" y2="804.0"/>
<line stroke="#000000" x1="633.0" y1="804.0" x2="626.0" y2="948.0"/>
<line stroke="#000000" x1="626.0" y1="948.0" x2="646.0" y2="809.0"/>
<line stroke="#000000" x1="646.0" y1="809.0" x2="586.0" y2="939.0"/>
<line stroke="#000000" x1="586.0" y1="939.0" x2="714.0" y2="962.0"/>
<line stroke="#000000" x1="714.0" y1="962.0" x2="668.0" y2="852.0"/>
<line stroke="#000000" x1="668.0" y1="852.0" x2="756.0" y2="932.0"/>
<line stroke="#000000" x1="756.0" y1="932.0" x2="722.0" y2="837.0"/>
<line stroke="#000000" x1="722.0" y1="837.0" x2="476.0" y2="889.0"/>
<line stroke="#000000" x1="476.0" y1="889.0" x2="623.0" y2="890.0"/>
<line stroke="#000000" x1="623.0" y1="890.0" x2="508.0" y2="992.0"/>
<line stroke="#000000" x1="508.0" y1="992.0" x2="614.0" y2="917.0"/>
<line stroke="#000000" x1="614.0" y1="917.0" x2="729.0" y2="947.0"/>
<line stroke="#000000" x1="729.0" y1="947.0" x2="582.0" y2="808.0"/>
<line stroke="#000000" x1="582.0" y1="808.0" x2="502.0" y2="971.0"/>
<line stroke="#000000" x1="502.0" y1="971.0" x2="718.0" y2="890.0"/>
<line stroke="#000000" x1="718.0" y1="890.0" x2="683.0" y2="790.0"/>
<line stroke="#000000" x1="683.0" y1="790.0" x2="412.0" y2="895.0"/>
<line stroke="#000000" x1="391.0" y1="604.0" x2="281.0" y2="708.0"/>
<line stroke="#000000" x1="281.0" y1="708.0" x2="320.0" y2="948.0"/>
<line stroke="#000000" x1="320.0" y1="948.0" x2="478.0" y2="841.0"/>
<line stroke="#000000" x1="478.0" y1="841.0" x2="441.0" y2="714.0"/>
<line stroke="#000000" x1="441.0" y1="714.0" x2="560.0" y2="808.0"/>
<line stroke="#000000" x1="560.0" y1="808.0" x2="608.0" y2="951.0"/>
<line stroke="#000000" x1="608.0" y1="951.0" x2="598.0" y2="836.0"/>
<line stroke="#000000" x1="598.0" y1="836.0" x2="652.0" y2="950.0"/>
<line stroke="#000000" x1="652.0" y1="950.0" x2="710.0" y2="782.0"/>
<line stroke="#000000" x1="710.0" y1="782.0" x2="609.0" y2="755.0"/>
<line stroke="#000000" x1="609.0" y1="755.0" x2="495.0" y2="909.0"/>
<line stroke="#000000" x1="495.0" y1="909.0" x2="633.0" y2="804.0"/>
<line stroke="#000000" x1="633.0" y1="804.0" x2="626.0" y2="948.0"/>
<line stroke="#000000" x1="626.0" y1="948.0" x2="646.0" y2="809.0"/>
<line stroke="#000000" x1="646.0" y1="809.0" x2="607.0" y2="947.0"/>
<line stroke="#000000" x1="607.0" y1="947.0" x2="721.0" y2="850.0"/>
<line stroke="#000000" x1="721.0" y1="850.0" x2="476.0" y2="889.0"/>
<line stroke="#000000" x1="476.0" y1="889.0" x2="710.0" y2="967.0"/>
<line stroke="#000000" x1="710.0" y1="967.0" x2="600.0" y2="841.0"/>
<line stroke="#000000" x1="600.0" y1="841.0" x2="500.0" y2="806.0"/>
<line stroke="#000000" x1="500.0" y1="806.0" x2="595.0" y2="956.0"/>
<line stroke="#000000" x1="595.0" y1="956.0" x2="716.0" y2="865.0"/>
<line stroke="#000000" x1="716.0" y1="865.0" x2="568.0" y2="763.0"/>
<line stroke="#000000" x1="568.0" y1="763.0" x2="414.0" y2="939.0"/>
<line stroke="#000000" x1="391.0" y1="604.0" x2="253.0" y2="703.0"/>
<line stroke="#000000" x1="253.0" y1="703.0" x2="364.0" y2="713.0"/>
<line stroke="#000000" x1="364.0" y1="713.0" x2="320.0" y2="948.0"/>
<line stroke="#000000" x1="320.0" y1="948.0" x2="424.0" y2="884.0"/>
<line stroke="#000000" x1="424.0" y1="884.0" x2="463.0" y2="724.0"/>
<line stroke="#000000" x1="463.0" y1="724.0" x2="560.0" y2="808.0"/>
<line stroke="#000000" x1="560.0" y1="808.0" x2="608.0" y2="951.0"/>
<line stroke="#000000" x1="608.0" y1="951.0" x2="598.0" y2="836.0"/>
<line stroke="#000000" x1="598.0" y1="836.0" x2="652.0" y2="950.0"/>
<line stroke="#000000" x1="652.0" y1="950.0" x2="710.0" y2="782.0"/>
<line stroke="#000000" x1="710.0" y1="782.0" x2="609.0" y2="755.0"/>
<line stroke="#000000" x1="609.0" y1="755.0" x2="495.0" y2="909.0"/>
<line stroke="#000000" x1="495.0" y1="909.0" x2="633.0" y2="804.0"/>
<line stroke="#000000" x1="633.0" y1="804.0" x2="626.0" y2="948.0"/>
<line stroke="#000000" x1="626.0" y1="948.0" x2="646.0" y2="809.0"/>
<line stroke="#000000" x1="646.0" y1="809.0" x2="586.0" y2="939.0"/>
<line stroke="#000000" x1="586.0" y1="939.0" x2="722.0" y2="835.0"/>
<line stroke="#000000" x1="722.0" y1="835.0" x2="476.0" y2="889.0"/>
<line stroke="#000000" x1="476.0" y1="889.0" x2="623.0" y2="890.0"/>
<line stroke="#000000" x1="623.0" y1="890.0" x2="508.0" y2="992.0"/>
<line stroke="#000000" x1="508.0" y1="992.0" x2="712.0" y2="926.0"/>
<line stroke="#000000" x1="712.0" y1="926.0" x2="582.0" y2="808.0"/>
<line stroke="#000000" x1="582.0" y1="808.0" x2="502.0" y2="971.0"/>
<line stroke="#000000" x1="502.0" y1="971.0" x2="718.0" y2="890.0"/>
<line stroke="#000000" x1="718.0" y1="890.0" x2="683.0" y2="790.0"/>
<line stroke="#000000" x1="683.0" y1="790.0" x2="279.0" y2="945.0"/>
</g>
</svg>
