<svg xmlns="http://www.w3.org/2000/svg" width="1000.0px" height="1000.0px" viewBox="0.0 0.0 1000.0 1000.0">
<g>
<line stroke="#000000" x1="491.0" y1="504.0" x2="410.0" y2="583.0"/>
<line stroke="#000000" x1="410.0" y1="583.0" x2="506.0" y2="450.0"/>
<line stroke="#000000" x1="506.0" y1="450.0" x2="381.0" y2="608.0"/>
<line stroke="#000000" x1="381.0" y1="608.0" x2="350.0" y2="602.0"/>
<line stroke="#000000" x1="410.0" y1="583.0" x2="506.0" y2="450.0"/>
<line stroke="#000000" x1="506.0" y1="450.0" x2="381.0" y2="608.0"/>
<line stroke="#000000" x1="381.0" y1="608.0" x2="350.0" y2="602.0"/>
<line stroke="#000000" x1="597.0" y1="711.0" x2="599.0" y2="597.0"/>
<line stroke="#000000" x1="586.0" y1="555.0" x2="575.0" y2="531.0"/>
<line stroke="#000000" x1="575.0" y1="531.0" x2="561.0" y2="508.0"/>
<line stroke="#000000" x1="561.0" y1="508.0" x2="545.0" y2="487.0"/>
<line stroke="#000000" x1="545.0" y1="487.0" x2="491.0" y2="504.0"/>
<line stroke="#000000" x1="491.0" y1="504.0" x2="410.0" y2="583.0"/>
<line stroke="#000000" x1="410.0" y1="583.0" x2="506.0" y2="450.0"/>
<line stroke="#000000" x1="506.0" y1="450.0" x2="360.0" y2="603.0"/>
<line stroke="#000000" x1="350.0" y1="905.0" x2="411.0" y2="897.0"/>
<line stroke="#000000" x1="411.0" y1="897.0" x2="550.0" y2="806.0"/>
<line stroke="#000000" x1="550.0" y1="494.0" x2="533.0" y2="473.0"/>
<line stroke="#000000" x1="533.0" y1="473.0" x2="491.0" y2="504.0"/>
<line stroke="#000000" x1="491.0" y1="504.0" x2="410.0" y2="583.0"/>
<line stroke="#000000" x1="410.0" y1="583.0" x2="506.0" y2="450.0"/>
<line stroke="#000000" x1="506.0" y1="450.0" x2="381.0" y2="608.0"/>
<line stroke="#000000" x1="381.0" y1="608.0" x2="350.0" y2="602.0"/>
<line stroke="#000000" x1="499.0" y1="856.0" x2="533.0" y2="827.0"/>
<line stroke="#000000" x1="533.0" y1="827.0" x2="566.0" y2="785.0"/>
<line stroke="#000000" x1="566.0" y1="785.0" x2="595.0" y2="720.0"/>
<line stroke="#000000" x1="595.0" y1="720.0" x2="592.0" y2="572.0"/>
<line stroke="#000000" x1="491.0" y1="504.0" x2="410.0" y2="583.0"/>
<line stroke="#000000" x1="360.0" y1="603.0" x2="353.0" y2="603.0"/>
<line stroke="#000000" x1="506.0" y1="850.0" x2="566.0" y2="785.0"/>
<line stroke="#000000" x1="579.0" y1="761.0" x2="582.0" y2="753.0"/>
<line stroke="#000000" x1="602.0" y1="615.0" x2="589.0" y2="563.0"/>
<line stroke="#000000" x1="361.0" y1="603.0" x2="350.0" y2="602.0"/>
<line stroke="#000000" x1="350.0" y1="905.0" x2="513.0" y2="845.0"/>
<line stroke="#000000" x1="556.0" y1="799.0" x2="579.0" y2="761.0"/>
<line stroke="#000000" x1="579.0" y1="761.0" x2="597.0" y2="711.0"/>
<line stroke="#000000" x1="597.0" y1="711.0" x2="602.0" y2="615.0"/>
<line stroke="#000000" x1="602.0" y1="615.0" x2="566.0" y2="515.0"/>
<line stroke="#000000" x1="545.0" y1="487.0" x2="491.0" y2="504.0"/>
<line stroke="#000000" x1="491.0" y1="504.0" x2="410.0" y2="583.0"/>
<line stroke="#000000" x1="410.0" y1="583.0" x2="506.0" y2="450.0"/>
<line stroke="#000000" x1="506.0" y1="450.0" x2="381.0" y2="608.0"/>
<line stroke="#000000" x1="381.0" y1="608.0" x2="350.0" y2="602.0"/>
<line stroke="#000000" x1="350.0" y1="905.0" x2="513.0" y2="845.0"/>
<line stroke="#000000" x1="561.0" y1="792.0" x2="575.0" y2="769.0"/>
<line stroke="#000000" x1="575.0" y1="769.0" x2="586.0" y2="745.0"/>
<line stroke="#000000" x1="586.0" y1="745.0" x2="595.0" y2="720.0"/>
<line stroke="#000000" x1="595.0" y1="720.0" x2="601.0" y2="694.0"/>
<line stroke="#000000" x1="601.0" y1="694.0" x2="604.0" y2="667.0"/>
<line stroke="#000000" x1="604.0" y1="667.0" x2="604.0" y2="642.0"/>
<line stroke="#000000" x1="604.0" y1="642.0" x2="602.0" y2="615.0"/>
<line stroke="#000000" x1="602.0" y1="615.0" x2="597.0" y2="589.0"/>
<line stroke="#000000" x1="597.0" y1="589.0" x2="589.0" y2="563.0"/>
<line stroke="#000000" x1="589.0" y1="563.0" x2="579.0" y2="539.0"/>
<line stroke="#000000" x1="579.0" y1="539.0" x2="566.0" y2="515.0"/>
<line stroke="#000000" x1="566.0" y1="515.0" x2="550.0" y2="494.0"/>
<line stroke="#000000" x1="550.0" y1="494.0" x2="533.0" y2="473.0"/>
<line stroke="#000000" x1="533.0" y1="473.0" x2="491.0" y2="504.0"/>
<line stroke="#000000" x1="491.0" y1="504.0" x2="410.0" y2="583.0"/>
<line stroke="#000000" x1="410.0" y1="583.0" x2="506.0" y2="450.0"/>
<line stroke="#000000" x1="506.0" y1="450.0" x2="381.0" y2="608.0"/>
<line stroke="#000000" x1="368.0" y1="604.0" x2="350.0" y2="602.0"/>
<line stroke="#000000" x1="350.0" y1="905.0" x2="376.0" y2="903.0"/>
<line stroke="#000000" x1="376.0" y1="903.0" x2="403.0" y2="899.0"/>
<line stroke="#000000" x1="403.0" y1="899.0" x2="428.0" y2="892.0"/>
<line stroke="#000000" x1="428.0" y1="892.0" x2="453.0" y2="882.0"/>
<line stroke="#000000" x1="453.0" y1="882.0" x2="477.0" y2="870.0"/>
<line stroke="#000000" x1="477.0" y1="870.0" x2="499.0" y2="856.0"/>
<line stroke="#000000" x1="499.0" y1="856.0" x2="520.0" y2="839.0"/>
<line stroke="#000000" x1="520.0" y1="839.0" x2="539.0" y2="820.0"/>
<line stroke="#000000" x1="539.0" y1="820.0" x2="556.0" y2="799.0"/>
<line stroke="#000000" x1="556.0" y1="799.0" x2="570.0" y2="777.0"/>
<line stroke="#000000" x1="570.0" y1="777.0" x2="582.0" y2="753.0"/>
<line stroke="#000000" x1="582.0" y1="753.0" x2="592.0" y2="728.0"/>
<line stroke="#000000" x1="592.0" y1="728.0" x2="599.0" y2="703.0"/>
<line stroke="#000000" x1="599.0" y1="703.0" x2="603.0" y2="676.0"/>
<line stroke="#000000" x1="603.0" y1="676.0" x2="605.0" y2="650.0"/>
<line stroke="#000000" x1="605.0" y1="650.0" x2="603.0" y2="624.0"/>
<line stroke="#000000" x1="603.0" y1="624.0" x2="599.0" y2="597.0"/>
<line stroke="#000000" x1="599.0" y1="597.0" x2="592.0" y2="572.0"/>
<line stroke="#000000" x1="592.0" y1="572.0" x2="582.0" y2="547.0"/>
<line stroke="#000000" x1="582.0" y1="547.0" x2="570.0" y2="523.0"/>
<line stroke="#000000" x1="570.0" y1="523.0" x2="556.0" y2="501.0"/>
<line stroke="#000000" x1="556.0" y1="501.0" x2="539.0" y2="480.0"/>
<line stroke="#000000" x1="539.0" y1="480.0" x2="491.0" y2="504.0"/>
<line stroke="#000000" x1="491.0" y1="504.0" x2="410.0" y2="583.0"/>
<line stroke="#000000" x1="410.0" y1="583.0" x2="506.0" y2="450.0"/>
<line stroke="#000000" x1="506.0" y1="450.0" x2="381.0" y2="608.0"/>
<line stroke="#000000" x1="381.0" y1="608.0" x2="350.0" y2="602.0"/>
<line stroke="#000000" x1="350.0" y1="905.0" x2="376.0" y2="903.0"/>
<line stroke="#000000" x1="376.0" y1="903.0" x2="403.0" y2="899.0"/>
<line stroke="#000000" x1="403.0" y1="899.0" x2="428.0" y2="892.0"/>
<line stroke="#000000" x1="428.0" y1="892.0" x2="453.0" y2="882.0"/>
<line stroke="#000000" x1="453.0" y1="882.0" x2="477.0" y2="870.0"/>
<line stroke="#000000" x1="477.0" y1="870.0" x2="499.0" y2="856.0"/>
<line stroke="#000000" x1="499.0" y1="856.0" x2="520.0" y2="839.0"/>
<line stroke="#000000" x1="520.0" y1="839.0" x2="539.0" y2="820.0"/>
<line stroke="#000000" x1="539.0" y1="820.0" x2="556.0" y2="799.0"/>
<line stroke="#000000" x1="556.0" y1="799.0" x2="570.0" y2="777.0"/>
<line stroke="#000000" x1="570.0" y1="777.0" x2="582.0" y2="753.0"/>
<line stroke="#000000" x1="582.0" y1="753.0" x2="592.0" y2="728.0"/>
<line stroke="#000000" x1="592.0" y1="728.0" x2="599.0" y2="703.0"/>
<line stroke="#000000" x1="599.0" y1="703.0" x2="603.0" y2="676.0"/>
<line stroke="#000000" x1="603.0" y1="676.0" x2="605.0" y2="650.0"/>
<line stroke="#000000" x1="605.0" y1="650.0" x2="603.0" y2="624.0"/>
<line stroke="#000000" x1="603.0" y1="624.0" x2="599.0" y2="597.0"/>
<line stroke="#000000" x1="599.0" y1="597.0" x2="592.0" y2="572.0"/>
<line stroke="#000000" x1="592.0" y1="572.0" x2="582.0" y2="547.0"/>
<line stroke="#000000" x1="582.0" y1="547.0" x2="570.0" y2="523.0"/>
<line stroke="#000000" x1="570.0" y1="523.0" x2="556.0" y2="501.0"/>
<line stroke="#000000" x1="556.0" y1="501.0" x2="539.0" y2="480.0"/>
<line stroke="#000000" x1="539.0" y1="480.0" x2="491.0" y2="504.0"/>
<line stroke="#000000" x1="491.0" y1="504.0" x2="410.0" y2="583.0"/>
<line stroke="#000000" x1="410.0" y1="583.0" x2="506.0" y2="450.0"/>
<line stroke="#000000" x1="506.0" y1="450.0" x2="381.0" y2="608.0"/>
<line stroke="#000000" x1="381.0" y1="608.0" x2="350.0" y2="602.0"/>
<line stroke="#000000" x1="350.0" y1="905.0" x2="453.0" y2="882.0"/>
<line stroke="#000000" x1="520.0" y1="839.0" x2="539.0" y2="820.0"/>
<line stroke="#000000" x1="539.0" y1="820.0" x2="556.0" y2="799.0"/>
<line stroke="#000000" x1="556.0" y1="799.0" x2="570.0" y2="777.0"/>
<line stroke="#000000" x1="570.0" y1="777.0" x2="582.0" y2="753.0"/>
<line stroke="#000000" x1="582.0" y1="753.0" x2="592.0" y2="728.0"/>
<line stroke="#000000" x1="592.0" y1="728.0" x2="599.0" y2="703.0"/>
<line stroke="#000000" x1="599.0" y1="703.0" x2="603.0" y2="676.0"/>
<line stroke="#000000" x1="603.0" y1="676.0" x2="605.0" y2="650.0"/>
<line stroke="#000000" x1="605.0" y1="650.0" x2="603.0" y2="624.0"/>
<line stroke="#000000" x1="603.0" y1="624.0" x2="599.0" y2="597.0"/>
<line stroke="#000000" x1="599.0" y1="597.0" x2="592.0" y2="572.0"/>
<line stroke="#000000" x1="592.0" y1="572.0" x2="582.0" y2="547.0"/>
<line stroke="#000000" x1="582.0" y1="547.0" x2="570.0" y2="523.0"/>
<line stroke="#000000" x1="570.0" y1="523.0" x2="556.0" y2="501.0"/>
<line stroke="#000000" x1="556.0" y1="501.0" x2="539.0" y2="480.0"/>
<line stroke="#000000" x1="539.0" y1="480.0" x2="491.0" y2="504.0"/>
<line stroke="#000000" x1="491.0" y1="504.0" x2="410.0" y2="583.0"/>
<line stroke="#000000" x1="410.0" y1="583.0" x2="506.0" y2="450.0"/>
<line stroke="#000000" x1="506.0" y1="450.0" x2="381.0" y2="608.0"/>
<line stroke="#000000" x1="381.0" y1="608.0" x2="350.0" y2="602.0"/>
<line stroke="#000000" x1="350.0" y1="905.0" x2="453.0" y2="882.0"/>
<line stroke="#000000" x1="499.0" y1="856.0" x2="520.0" y2="839.0"/>
<line stroke="#000000" x1="520.0" y1="839.0" x2="539.0" y2="820.0"/>
<line stroke="#000000" x1="539.0" y1="820.0" x2="556.0" y2="799.0"/>
<line stroke="#000000" x1="556.0" y1="799.0" x2="570.0" y2="777.0"/>
<line stroke="#000000" x1="570.0" y1="777.0" x2="582.0" y2="753.0"/>
<line stroke="#000000" x1="582.0" y1="753.0" x2="592.0" y2="728.0"/>
<line stroke="#000000" x1="592.0" y1="728.0" x2="599.0" y2="703.0"/>
<line stroke="#000000" x1="599.0" y1="703.0" x2="603.0" y2="676.0"/>
<line stroke="#000000" x1="603.0" y1="676.0" x2="605.0" y2="650.0"/>
<line stroke="#000000" x1="605.0" y1="650.0" x2="603.0" y2="624.0"/>
<line stroke="#000000" x1="603.0" y1="624.0" x2="599.0" y2="597.0"/>
<line stroke="#000000" x1="599.0" y1="597.0" x2="592.0" y2="572.0"/>
<line stroke="#000000" x1="592.0" y1="572.0" x2="582.0" y2="547.0"/>
<line stroke="#000000" x1="582.0" y1="547.0" x2="570.0" y2="523.0"/>
<line stroke="#000000" x1="570.0" y1="523.0" x2="556.0" y2="501.0"/>
<line stroke="#000000" x1="556.0" y1="501.0" x2="539.0" y2="480.0"/>
<line stroke="#000000" x1="539.0" y1="480.0" x2="491.0" y2="504.0"/>
<line stroke="#000000" x1="491.0" y1="504.0" x2="410.0" y2="583.0"/>
<line stroke="#000000" x1="410.0" y1="583.0" x2="506.0" y2="450.0"/>
<line stroke="#000000" x1="506.0" y1="450.0" x2="381.0" y2="608.0"/>
<line stroke="#000000" x1="381.0" y1="608.0" x2="350.0" y2="602.0"/>
<line stroke="#000000" x1="350.0" y1="905.0" x2="428.0" y2="892.0"/>
<line stroke="#000000" x1="428.0" y1="892.0" x2="539.0" y2="820.0"/>
<line stroke="#000000" x1="539.0" y1="480.0" x2="491.0" y2="504.0"/>
<line stroke="#000000" x1="491.0" y1="504.0" x2="410.0" y2="583.0"/>
<line stroke="#000000" x1="410.0" y1="583.0" x2="506.0" y2="450.0"/>
<line stroke="#000000" x1="506.0" y1="450.0" x2="381.0" y2="608.0"/>
<line stroke="#000000" x1="381.0" y1="608.0" x2="350.0" y2="602.0"/>
<line stroke="#000000" x1="492.0" y1="861.0" x2="520.0" y2="839.0"/>
<line stroke="#000000" x1="520.0" y1="839.0" x2="545.0" y2="813.0"/>
<line stroke="#000000" x1="545.0" y1="813.0" x2="570.0" y2="777.0"/>
<line stroke="#000000" x1="570.0" y1="777.0" x2="592.0" y2="728.0"/>
<line stroke="#000000" x1="592.0" y1="728.0" x2="605.0" y2="650.0"/>
<line stroke="#000000" x1="605.0" y1="650.0" x2="570.0" y2="523.0"/>
<line stroke="#000000" x1="373.0" y1="605.0" x2="371.0" y2="606.0"/>
<line stroke="#000000" x1="363.0" y1="603.0" x2="350.0" y2="602.0"/>
<line stroke="#000000" x1="350.0" y1="905.0" x2="385.0" y2="902.0"/>
<line stroke="#000000" x1="385.0" y1="902.0" x2="420.0" y2="895.0"/>
<line stroke="#000000" x1="420.0" y1="895.0" x2="453.0" y2="882.0"/>
<line stroke="#000000" x1="453.0" y1="882.0" x2="492.0" y2="861.0"/>
<line stroke="#000000" x1="492.0" y1="861.0" x2="527.0" y2="833.0"/>
<line stroke="#000000" x1="527.0" y1="833.0" x2="566.0" y2="785.0"/>
<line stroke="#000000" x1="566.0" y1="785.0" x2="601.0" y2="606.0"/>
<line stroke="#000000" x1="533.0" y1="473.0" x2="491.0" y2="504.0"/>
<line stroke="#000000" x1="491.0" y1="504.0" x2="410.0" y2="583.0"/>
<line stroke="#000000" x1="410.0" y1="583.0" x2="506.0" y2="450.0"/>
<line stroke="#000000" x1="506.0" y1="450.0" x2="381.0" y2="608.0"/>
<line stroke="#000000" x1="381.0" y1="608.0" x2="350.0" y2="602.0"/>
</g>
</svg>
