<svg xmlns="http://www.w3.org/2000/svg" width="1000.0px" height="1000.0px" viewBox="0.0 0.0 1000.0 1000.0">
<g>
<line stroke="#000000" x1="350.0" y1="706.0" x2="385.0" y2="699.0"/>
<line stroke="#000000" x1="528.0" y1="789.0" x2="548.0" y2="755.0"/>
<line stroke="#000000" x1="564.0" y1="719.0" x2="573.0" y2="673.0"/>
<line stroke="#000000" x1="363.0" y1="705.0" x2="506.0" y2="850.0"/>
<line stroke="#000000" x1="506.0" y1="850.0" x2="533.0" y2="827.0"/>
<line stroke="#000000" x1="533.0" y1="827.0" x2="528.0" y2="789.0"/>
<line stroke="#000000" x1="528.0" y1="789.0" x2="579.0" y2="761.0"/>
<line stroke="#000000" x1="579.0" y1="761.0" x2="564.0" y2="719.0"/>
<line stroke="#000000" x1="564.0" y1="719.0" x2="573.0" y2="673.0"/>
<line stroke="#000000" x1="573.0" y1="673.0" x2="604.0" y2="667.0"/>
<line stroke="#000000" x1="604.0" y1="667.0" x2="550.0" y2="494.0"/>
<line stroke="#000000" x1="539.0" y1="820.0" x2="528.0" y2="789.0"/>
<line stroke="#000000" x1="528.0" y1="789.0" x2="579.0" y2="761.0"/>
<line stroke="#000000" x1="579.0" y1="761.0" x2="564.0" y2="719.0"/>
<line stroke="#000000" x1="564.0" y1="719.0" x2="573.0" y2="673.0"/>
<line stroke="#000000" x1="573.0" y1="673.0" x2="604.0" y2="667.0"/>
<line stroke="#000000" x1="604.0" y1="667.0" x2="561.0" y2="508.0"/>
<line stroke="#000000" x1="350.0" y1="706.0" x2="353.0" y2="706.0"/>
<line stroke="#000000" x1="369.0" y1="704.0" x2="506.0" y2="850.0"/>
<line stroke="#000000" x1="506.0" y1="850.0" x2="527.0" y2="833.0"/>
<line stroke="#000000" x1="527.0" y1="833.0" x2="545.0" y2="813.0"/>
<line stroke="#000000" x1="545.0" y1="813.0" x2="544.0" y2="762.0"/>
<line stroke="#000000" x1="544.0" y1="762.0" x2="579.0" y2="761.0"/>
<line stroke="#000000" x1="579.0" y1="761.0" x2="589.0" y2="737.0"/>
<line stroke="#000000" x1="589.0" y1="737.0" x2="573.0" y2="673.0"/>
<line stroke="#000000" x1="573.0" y1="673.0" x2="604.0" y2="667.0"/>
<line stroke="#000000" x1="604.0" y1="667.0" x2="604.0" y2="633.0"/>
<line stroke="#000000" x1="604.0" y1="633.0" x2="599.0" y2="597.0"/>
<line stroke="#000000" x1="599.0" y1="597.0" x2="589.0" y2="563.0"/>
<line stroke="#000000" x1="589.0" y1="563.0" x2="570.0" y2="523.0"/>
<line stroke="#000000" x1="570.0" y1="523.0" x2="539.0" y2="480.0"/>
<line stroke="#000000" x1="539.0" y1="480.0" x2="477.0" y2="430.0"/>
<line stroke="#000000" x1="477.0" y1="430.0" x2="350.0" y2="395.0"/>
<line stroke="#000000" x1="350.0" y1="706.0" x2="384.0" y2="700.0"/>
<line stroke="#000000" x1="384.0" y1="700.0" x2="506.0" y2="850.0"/>
<line stroke="#000000" x1="506.0" y1="850.0" x2="533.0" y2="827.0"/>
<line stroke="#000000" x1="533.0" y1="827.0" x2="528.0" y2="789.0"/>
<line stroke="#000000" x1="528.0" y1="789.0" x2="579.0" y2="761.0"/>
<line stroke="#000000" x1="579.0" y1="761.0" x2="564.0" y2="719.0"/>
<line stroke="#000000" x1="564.0" y1="719.0" x2="573.0" y2="673.0"/>
<line stroke="#000000" x1="573.0" y1="673.0" x2="604.0" y2="667.0"/>
<line stroke="#000000" x1="604.0" y1="667.0" x2="556.0" y2="501.0"/>
<line stroke="#000000" x1="545.0" y1="487.0" x2="539.0" y2="480.0"/>
<line stroke="#000000" x1="499.0" y1="444.0" x2="350.0" y2="395.0"/>
<line stroke="#000000" x1="350.0" y1="706.0" x2="371.0" y2="703.0"/>
<line stroke="#000000" x1="371.0" y1="703.0" x2="506.0" y2="850.0"/>
<line stroke="#000000" x1="506.0" y1="850.0" x2="527.0" y2="833.0"/>
<line stroke="#000000" x1="527.0" y1="833.0" x2="545.0" y2="813.0"/>
<line stroke="#000000" x1="545.0" y1="813.0" x2="544.0" y2="762.0"/>
<line stroke="#000000" x1="544.0" y1="762.0" x2="579.0" y2="761.0"/>
<line stroke="#000000" x1="579.0" y1="761.0" x2="589.0" y2="737.0"/>
<line stroke="#000000" x1="589.0" y1="737.0" x2="573.0" y2="673.0"/>
<line stroke="#000000" x1="573.0" y1="673.0" x2="604.0" y2="667.0"/>
<line stroke="#000000" x1="604.0" y1="667.0" x2="604.0" y2="633.0"/>
<line stroke="#000000" x1="604.0" y1="633.0" x2="599.0" y2="597.0"/>
<line stroke="#000000" x1="599.0" y1="597.0" x2="589.0" y2="563.0"/>
<line stroke="#000000" x1="589.0" y1="563.0" x2="570.0" y2="523.0"/>
<line stroke="#000000" x1="570.0" y1="523.0" x2="539.0" y2="480.0"/>
<line stroke="#000000" x1="539.0" y1="480.0" x2="477.0" y2="430.0"/>
<line stroke="#000000" x1="477.0" y1="430.0" x2="350.0" y2="395.0"/>
<line stroke="#000000" x1="350.0" y1="706.0" x2="377.0" y2="702.0"/>
<line stroke="#000000" x1="377.0" y1="702.0" x2="506.0" y2="850.0"/>
<line stroke="#000000" x1="506.0" y1="850.0" x2="545.0" y2="813.0"/>
<line stroke="#000000" x1="545.0" y1="813.0" x2="528.0" y2="789.0"/>
<line stroke="#000000" x1="528.0" y1="789.0" x2="579.0" y2="761.0"/>
<line stroke="#000000" x1="579.0" y1="761.0" x2="571.0" y2="681.0"/>
<line stroke="#000000" x1="604.0" y1="667.0" x2="604.0" y2="633.0"/>
<line stroke="#000000" x1="604.0" y1="633.0" x2="599.0" y2="597.0"/>
<line stroke="#000000" x1="599.0" y1="597.0" x2="589.0" y2="563.0"/>
<line stroke="#000000" x1="589.0" y1="563.0" x2="570.0" y2="523.0"/>
<line stroke="#000000" x1="570.0" y1="523.0" x2="539.0" y2="480.0"/>
<line stroke="#000000" x1="539.0" y1="480.0" x2="477.0" y2="430.0"/>
<line stroke="#000000" x1="477.0" y1="430.0" x2="350.0" y2="395.0"/>
<line stroke="#000000" x1="350.0" y1="706.0" x2="361.0" y2="705.0"/>
<line stroke="#000000" x1="548.0" y1="755.0" x2="579.0" y2="761.0"/>
<line stroke="#000000" x1="579.0" y1="761.0" x2="564.0" y2="719.0"/>
<line stroke="#000000" x1="564.0" y1="719.0" x2="573.0" y2="673.0"/>
<line stroke="#000000" x1="573.0" y1="673.0" x2="604.0" y2="667.0"/>
<line stroke="#000000" x1="604.0" y1="667.0" x2="570.0" y2="523.0"/>
<line stroke="#000000" x1="556.0" y1="501.0" x2="513.0" y2="455.0"/>
<line stroke="#000000" x1="513.0" y1="455.0" x2="350.0" y2="395.0"/>
<line stroke="#000000" x1="355.0" y1="706.0" x2="379.0" y2="701.0"/>
<line stroke="#000000" x1="379.0" y1="701.0" x2="506.0" y2="850.0"/>
<line stroke="#000000" x1="506.0" y1="850.0" x2="539.0" y2="820.0"/>
<line stroke="#000000" x1="539.0" y1="820.0" x2="528.0" y2="789.0"/>
<line stroke="#000000" x1="528.0" y1="789.0" x2="579.0" y2="761.0"/>
<line stroke="#000000" x1="579.0" y1="761.0" x2="592.0" y2="572.0"/>
<line stroke="#000000" x1="545.0" y1="487.0" x2="492.0" y2="439.0"/>
<line stroke="#000000" x1="492.0" y1="439.0" x2="350.0" y2="395.0"/>
<line stroke="#000000" x1="350.0" y1="706.0" x2="377.0" y2="702.0"/>
<line stroke="#000000" x1="377.0" y1="702.0" x2="506.0" y2="850.0"/>
<line stroke="#000000" x1="506.0" y1="850.0" x2="545.0" y2="813.0"/>
<line stroke="#000000" x1="545.0" y1="813.0" x2="528.0" y2="789.0"/>
<line stroke="#000000" x1="528.0" y1="789.0" x2="579.0" y2="761.0"/>
<line stroke="#000000" x1="579.0" y1="761.0" x2="564.0" y2="719.0"/>
<line stroke="#000000" x1="564.0" y1="719.0" x2="603.0" y2="624.0"/>
<line stroke="#000000" x1="592.0" y1="572.0" x2="570.0" y2="523.0"/>
<line stroke="#000000" x1="513.0" y1="455.0" x2="350.0" y2="395.0"/>
<line stroke="#000000" x1="350.0" y1="706.0" x2="379.0" y2="701.0"/>
<line stroke="#000000" x1="379.0" y1="701.0" x2="506.0" y2="850.0"/>
<line stroke="#000000" x1="506.0" y1="850.0" x2="533.0" y2="827.0"/>
<line stroke="#000000" x1="492.0" y1="439.0" x2="350.0" y2="395.0"/>
<line stroke="#000000" x1="350.0" y1="706.0" x2="377.0" y2="702.0"/>
<line stroke="#000000" x1="377.0" y1="702.0" x2="513.0" y2="845.0"/>
<line stroke="#000000" x1="485.0" y1="434.0" x2="350.0" y2="395.0"/>
<line stroke="#000000" x1="350.0" y1="706.0" x2="377.0" y2="702.0"/>
<line stroke="#000000" x1="377.0" y1="702.0" x2="506.0" y2="850.0"/>
<line stroke="#000000" x1="506.0" y1="850.0" x2="545.0" y2="813.0"/>
<line stroke="#000000" x1="545.0" y1="813.0" x2="536.0" y2="775.0"/>
<line stroke="#000000" x1="533.0" y1="473.0" x2="453.0" y2="418.0"/>
<line stroke="#000000" x1="453.0" y1="418.0" x2="350.0" y2="395.0"/>
<line stroke="#000000" x1="350.0" y1="706.0" x2="384.0" y2="700.0"/>
<line stroke="#000000" x1="384.0" y1="700.0" x2="506.0" y2="850.0"/>
<line stroke="#000000" x1="506.0" y1="850.0" x2="545.0" y2="813.0"/>
<line stroke="#000000" x1="540.0" y1="769.0" x2="579.0" y2="761.0"/>
<line stroke="#000000" x1="579.0" y1="761.0" x2="564.0" y2="719.0"/>
<line stroke="#000000" x1="564.0" y1="719.0" x2="604.0" y2="642.0"/>
<line stroke="#000000" x1="550.0" y1="494.0" x2="477.0" y2="430.0"/>
<line stroke="#000000" x1="411.0" y1="403.0" x2="350.0" y2="395.0"/>
<line stroke="#000000" x1="350.0" y1="706.0" x2="377.0" y2="702.0"/>
<line stroke="#000000" x1="377.0" y1="702.0" x2="506.0" y2="850.0"/>
<line stroke="#000000" x1="506.0" y1="850.0" x2="545.0" y2="813.0"/>
<line stroke="#000000" x1="545.0" y1="813.0" x2="528.0" y2="789.0"/>
<line stroke="#000000" x1="528.0" y1="789.0" x2="579.0" y2="761.0"/>
<line stroke="#000000" x1="579.0" y1="761.0" x2="564.0" y2="719.0"/>
<line stroke="#000000" x1="564.0" y1="719.0" x2="602.0" y2="615.0"/>
<line stroke="#000000" x1="520.0" y1="461.0" x2="350.0" y2="395.0"/>
<line stroke="#000000" x1="350.0" y1="706.0" x2="377.0" y2="702.0"/>
<line stroke="#000000" x1="377.0" y1="702.0" x2="520.0" y2="839.0"/>
<line stroke="#000000" x1="589.0" y1="737.0" x2="564.0" y2="719.0"/>
<line stroke="#000000" x1="564.0" y1="719.0" x2="573.0" y2="673.0"/>
<line stroke="#000000" x1="573.0" y1="673.0" x2="604.0" y2="667.0"/>
<line stroke="#000000" x1="604.0" y1="667.0" x2="586.0" y2="555.0"/>
<line stroke="#000000" x1="506.0" y1="450.0" x2="350.0" y2="395.0"/>
<line stroke="#000000" x1="350.0" y1="706.0" x2="381.0" y2="700.0"/>
<line stroke="#000000" x1="381.0" y1="700.0" x2="506.0" y2="850.0"/>
<line stroke="#000000" x1="506.0" y1="850.0" x2="539.0" y2="820.0"/>
<line stroke="#000000" x1="469.0" y1="425.0" x2="350.0" y2="395.0"/>
</g>
</svg>
