<svg xmlns="http://www.w3.org/2000/svg" width="1000.0px" height="1000.0px" viewBox="0.0 0.0 1000.0 1000.0">
<g>
<line stroke="#000000" x1="350.0" y1="294.0" x2="385.0" y2="301.0"/>
<line stroke="#000000" x1="528.0" y1="211.0" x2="548.0" y2="245.0"/>
<line stroke="#000000" x1="564.0" y1="281.0" x2="573.0" y2="327.0"/>
<line stroke="#000000" x1="363.0" y1="295.0" x2="506.0" y2="150.0"/>
<line stroke="#000000" x1="506.0" y1="150.0" x2="533.0" y2="173.0"/>
<line stroke="#000000" x1="533.0" y1="173.0" x2="528.0" y2="211.0"/>
<line stroke="#000000" x1="528.0" y1="211.0" x2="579.0" y2="239.0"/>
<line stroke="#000000" x1="579.0" y1="239.0" x2="564.0" y2="281.0"/>
<line stroke="#000000" x1="564.0" y1="281.0" x2="573.0" y2="327.0"/>
<line stroke="#000000" x1="573.0" y1="327.0" x2="604.0" y2="333.0"/>
<line stroke="#000000" x1="604.0" y1="333.0" x2="550.0" y2="506.0"/>
<line stroke="#000000" x1="539.0" y1="180.0" x2="528.0" y2="211.0"/>
<line stroke="#000000" x1="528.0" y1="211.0" x2="579.0" y2="239.0"/>
<line stroke="#000000" x1="579.0" y1="239.0" x2="564.0" y2="281.0"/>
<line stroke="#000000" x1="564.0" y1="281.0" x2="573.0" y2="327.0"/>
<line stroke="#000000" x1="573.0" y1="327.0" x2="604.0" y2="333.0"/>
<line stroke="#000000" x1="604.0" y1="333.0" x2="561.0" y2="492.0"/>
<line stroke="#000000" x1="350.0" y1="294.0" x2="353.0" y2="294.0"/>
<line stroke="#000000" x1="369.0" y1="296.0" x2="506.0" y2="150.0"/>
<line stroke="#000000" x1="506.0" y1="150.0" x2="527.0" y2="167.0"/>
<line stroke="#000000" x1="527.0" y1="167.0" x2="545.0" y2="187.0"/>
<line stroke="#000000" x1="545.0" y1="187.0" x2="544.0" y2="238.0"/>
<line stroke="#000000" x1="544.0" y1="238.0" x2="579.0" y2="239.0"/>
<line stroke="#000000" x1="579.0" y1="239.0" x2="589.0" y2="263.0"/>
<line stroke="#000000" x1="589.0" y1="263.0" x2="573.0" y2="327.0"/>
<line stroke="#000000" x1="573.0" y1="327.0" x2="604.0" y2="333.0"/>
<line stroke="#000000" x1="604.0" y1="333.0" x2="604.0" y2="367.0"/>
<line stroke="#000000" x1="604.0" y1="367.0" x2="599.0" y2="403.0"/>
<line stroke="#000000" x1="599.0" y1="403.0" x2="589.0" y2="437.0"/>
<line stroke="#000000" x1="589.0" y1="437.0" x2="570.0" y2="477.0"/>
<line stroke="#000000" x1="570.0" y1="477.0" x2="539.0" y2="520.0"/>
<line stroke="#000000" x1="539.0" y1="520.0" x2="477.0" y2="570.0"/>
<line stroke="#000000" x1="477.0" y1="570.0" x2="350.0" y2="605.0"/>
<line stroke="#000000" x1="350.0" y1="294.0" x2="384.0" y2="300.0"/>
<line stroke="#000000" x1="384.0" y1="300.0" x2="506.0" y2="150.0"/>
<line stroke="#000000" x1="506.0" y1="150.0" x2="533.0" y2="173.0"/>
<line stroke="#000000" x1="533.0" y1="173.0" x2="528.0" y2="211.0"/>
<line stroke="#000000" x1="528.0" y1="211.0" x2="579.0" y2="239.0"/>
<line stroke="#000000" x1="579.0" y1="239.0" x2="564.0" y2="281.0"/>
<line stroke="#000000" x1="564.0" y1="281.0" x2="573.0" y2="327.0"/>
<line stroke="#000000" x1="573.0" y1="327.0" x2="604.0" y2="333.0"/>
<line stroke="#000000" x1="604.0" y1="333.0" x2="556.0" y2="499.0"/>
<line stroke="#000000" x1="545.0" y1="513.0" x2="539.0" y2="520.0"/>
<line stroke="#000000" x1="499.0" y1="556.0" x2="350.0" y2="605.0"/>
<line stroke="#000000" x1="350.0" y1="294.0" x2="371.0" y2="297.0"/>
<line stroke="#000000" x1="371.0" y1="297.0" x2="506.0" y2="150.0"/>
<line stroke="#000000" x1="506.0" y1="150.0" x2="527.0" y2="167.0"/>
<line stroke="#000000" x1="527.0" y1="167.0" x2="545.0" y2="187.0"/>
<line stroke="#000000" x1="545.0" y1="187.0" x2="544.0" y2="238.0"/>
<line stroke="#000000" x1="544.0" y1="238.0" x2="579.0" y2="239.0"/>
<line stroke="#000000" x1="579.0" y1="239.0" x2="589.0" y2="263.0"/>
<line stroke="#000000" x1="589.0" y1="263.0" x2="573.0" y2="327.0"/>
<line stroke="#000000" x1="573.0" y1="327.0" x2="604.0" y2="333.0"/>
<line stroke="#000000" x1="604.0" y1="333.0" x2="604.0" y2="367.0"/>
<line stroke="#000000" x1="604.0" y1="367.0" x2="599.0" y2="403.0"/>
<line stroke="#000000" x1="599.0" y1="403.0" x2="589.0" y2="437.0"/>
<line stroke="#000000" x1="589.0" y1="437.0" x2="570.0" y2="477.0"/>
<line stroke="#000000" x1="570.0" y1="477.0" x2="539.0" y2="520.0"/>
<line stroke="#000000" x1="539.0" y1="520.0" x2="477.0" y2="570.0"/>
<line stroke="#000000" x1="477.0" y1="570.0" x2="350.0" y2="605.0"/>
<line stroke="#000000" x1="350.0" y1="294.0" x2="377.0" y2="298.0"/>
<line stroke="#000000" x1="377.0" y1="298.0" x2="506.0" y2="150.0"/>
<line stroke="#000000" x1="506.0" y1="150.0" x2="545.0" y2="187.0"/>
<line stroke="#000000" x1="545.0" y1="187.0" x2="528.0" y2="211.0"/>
<line stroke="#000000" x1="528.0" y1="211.0" x2="579.0" y2="239.0"/>
<line stroke="#000000" x1="579.0" y1="239.0" x2="571.0" y2="319.0"/>
<line stroke="#000000" x1="604.0" y1="333.0" x2="604.0" y2="367.0"/>
<line stroke="#000000" x1="604.0" y1="367.0" x2="599.0" y2="403.0"/>
<line stroke="#000000" x1="599.0" y1="403.0" x2="589.0" y2="437.0"/>
<line stroke="#000000" x1="589.0" y1="437.0" x2="570.0" y2="477.0"/>
<line stroke="#000000" x1="570.0" y1="477.0" x2="539.0" y2="520.0"/>
<line stroke="#000000" x1="539.0" y1="520.0" x2="477.0" y2="570.0"/>
<line stroke="#000000" x1="477.0" y1="570.0" x2="350.0" y2="605.0"/>
<line stroke="#000000" x1="350.0" y1="294.0" x2="361.0" y2="295.0"/>
<line stroke="#000000" x1="548.0" y1="245.0" x2="579.0" y2="239.0"/>
<line stroke="#000000" x1="579.0" y1="239.0" x2="564.0" y2="281.0"/>
<line stroke="#000000" x1="564.0" y1="281.0" x2="573.0" y2="327.0"/>
<line stroke="#000000" x1="573.0" y1="327.0" x2="604.0" y2="333.0"/>
<line stroke="#000000" x1="604.0" y1="333.0" x2="570.0" y2="477.0"/>
<line stroke="#000000" x1="556.0" y1="499.0" x2="513.0" y2="545.0"/>
<line stroke="#000000" x1="513.0" y1="545.0" x2="350.0" y2="605.0"/>
<line stroke="#000000" x1="355.0" y1="294.0" x2="379.0" y2="299.0"/>
<line stroke="#000000" x1="379.0" y1="299.0" x2="506.0" y2="150.0"/>
<line stroke="#000000" x1="506.0" y1="150.0" x2="539.0" y2="180.0"/>
<line stroke="#000000" x1="539.0" y1="180.0" x2="528.0" y2="211.0"/>
<line stroke="#000000" x1="528.0" y1="211.0" x2="579.0" y2="239.0"/>
<line stroke="#000000" x1="579.0" y1="239.0" x2="592.0" y2="428.0"/>
<line stroke="#000000" x1="545.0" y1="513.0" x2="492.0" y2="561.0"/>
<line stroke="#000000" x1="492.0" y1="561.0" x2="350.0" y2="605.0"/>
<line stroke="#000000" x1="350.0" y1="294.0" x2="377.0" y2="298.0"/>
<line stroke="#000000" x1="377.0" y1="298.0" x2="506.0" y2="150.0"/>
<line stroke="#000000" x1="506.0" y1="150.0" x2="545.0" y2="187.0"/>
<line stroke="#000000" x1="545.0" y1="187.0" x2="528.0" y2="211.0"/>
<line stroke="#000000" x1="528.0" y1="211.0" x2="579.0" y2="239.0"/>
<line stroke="#000000" x1="579.0" y1="239.0" x2="564.0" y2="281.0"/>
<line stroke="#000000" x1="564.0" y1="281.0" x2="603.0" y2="376.0"/>
<line stroke="#000000" x1="592.0" y1="428.0" x2="570.0" y2="477.0"/>
<line stroke="#000000" x1="513.0" y1="545.0" x2="350.0" y2="605.0"/>
<line stroke="#000000" x1="350.0" y1="294.0" x2="379.0" y2="299.0"/>
<line stroke="#000000" x1="379.0" y1="299.0" x2="506.0" y2="150.0"/>
<line stroke="#000000" x1="506.0" y1="150.0" x2="533.0" y2="173.0"/>
<line stroke="#000000" x1="492.0" y1="561.0" x2="350.0" y2="605.0"/>
<line stroke="#000000" x1="350.0" y1="294.0" x2="377.0" y2="298.0"/>
<line stroke="#000000" x1="377.0" y1="298.0" x2="513.0" y2="155.0"/>
<line stroke="#000000" x1="485.0" y1="566.0" x2="350.0" y2="605.0"/>
<line stroke="#000000" x1="350.0" y1="294.0" x2="377.0" y2="298.0"/>
<line stroke="#000000" x1="377.0" y1="298.0" x2="506.0" y2="150.0"/>
<line stroke="#000000" x1="506.0" y1="150.0" x2="545.0" y2="187.0"/>
<line stroke="#000000" x1="545.0" y1="187.0" x2="536.0" y2="225.0"/>
<line stroke="#000000" x1="533.0" y1="527.0" x2="453.0" y2="582.0"/>
<line stroke="#000000" x1="453.0" y1="582.0" x2="350.0" y2="605.0"/>
<line stroke="#000000" x1="350.0" y1="294.0" x2="384.0" y2="300.0"/>
<line stroke="#000000" x1="384.0" y1="300.0" x2="506.0" y2="150.0"/>
<line stroke="#000000" x1="506.0" y1="150.0" x2="545.0" y2="187.0"/>
<line stroke="#000000" x1="540.0" y1="231.0" x2="579.0" y2="239.0"/>
<line stroke="#000000" x1="579.0" y1="239.0" x2="564.0" y2="281.0"/>
<line stroke="#000000" x1="564.0" y1="281.0" x2="604.0" y2="358.0"/>
<line stroke="#000000" x1="550.0" y1="506.0" x2="477.0" y2="570.0"/>
<line stroke="#000000" x1="411.0" y1="597.0" x2="350.0" y2="605.0"/>
<line stroke="#000000" x1="350.0" y1="294.0" x2="377.0" y2="298.0"/>
<line stroke="#000000" x1="377.0" y1="298.0" x2="506.0" y2="150.0"/>
<line stroke="#000000" x1="506.0" y1="150.0" x2="545.0" y2="187.0"/>
<line stroke="#000000" x1="545.0" y1="187.0" x2="528.0" y2="211.0"/>
<line stroke="#000000" x1="528.0" y1="211.0" x2="579.0" y2="239.0"/>
<line stroke="#000000" x1="579.0" y1="239.0" x2="564.0" y2="281.0"/>
<line stroke="#000000" x1="564.0" y1="281.0" x2="602.0" y2="385.0"/>
<line stroke="#000000" x1="520.0" y1="539.0" x2="350.0" y2="605.0"/>
<line stroke="#000000" x1="350.0" y1="294.0" x2="377.0" y2="298.0"/>
<line stroke="#000000" x1="377.0" y1="298.0" x2="520.0" y2="161.0"/>
<line stroke="#000000" x1="589.0" y1="263.0" x2="564.0" y2="281.0"/>
<line stroke="#000000" x1="564.0" y1="281.0" x2="573.0" y2="327.0"/>
<line stroke="#000000" x1="573.0" y1="327.0" x2="604.0" y2="333.0"/>
<line stroke="#000000" x1="604.0" y1="333.0" x2="586.0" y2="445.0"/>
<line stroke="#000000" x1="506.0" y1="550.0" x2="350.0" y2="605.0"/>
<line stroke="#000000" x1="350.0" y1="294.0" x2="381.0" y2="300.0"/>
<line stroke="#000000" x1="381.0" y1="300.0" x2="506.0" y2="150.0"/>
<line stroke="#000000" x1="506.0" y1="150.0" x2="539.0" y2="180.0"/>
<line stroke="#000000" x1="469.0" y1="575.0" x2="350.0" y2="605.0"/>
</g>
</svg>
