<svg xmlns="http://www.w3.org/2000/svg" width="1000.0px" height="1000.0px" viewBox="0.0 0.0 1000.0 1000.0">
<g>
<line stroke="#000000" x1="391.0" y1="396.0" x2="250.0" y2="298.0"/>
<line stroke="#000000" x1="391.0" y1="396.0" x2="330.0" y2="295.0"/>
<line stroke="#000000" x1="391.0" y1="396.0" x2="310.0" y2="317.0"/>
<line stroke="#000000" x1="310.0" y1="317.0" x2="320.0" y2="52.0"/>
<line stroke="#000000" x1="320.0" y1="52.0" x2="510.0" y2="221.0"/>
<line stroke="#000000" x1="391.0" y1="396.0" x2="310.0" y2="317.0"/>
<line stroke="#000000" x1="310.0" y1="317.0" x2="320.0" y2="52.0"/>
<line stroke="#000000" x1="320.0" y1="52.0" x2="484.0" y2="167.0"/>
<line stroke="#000000" x1="484.0" y1="167.0" x2="430.0" y2="288.0"/>
<line stroke="#000000" x1="391.0" y1="396.0" x2="310.0" y2="317.0"/>
<line stroke="#000000" x1="310.0" y1="317.0" x2="320.0" y2="52.0"/>
<line stroke="#000000" x1="320.0" y1="52.0" x2="463.0" y2="276.0"/>
<line stroke="#000000" x1="463.0" y1="276.0" x2="631.0" y2="241.0"/>
<line stroke="#000000" x1="391.0" y1="396.0" x2="310.0" y2="317.0"/>
<line stroke="#000000" x1="310.0" y1="317.0" x2="320.0" y2="52.0"/>
<line stroke="#000000" x1="320.0" y1="52.0" x2="463.0" y2="276.0"/>
<line stroke="#000000" x1="463.0" y1="276.0" x2="641.0" y2="220.0"/>
<line stroke="#000000" x1="641.0" y1="220.0" x2="496.0" y2="170.0"/>
<line stroke="#000000" x1="496.0" y1="170.0" x2="608.0" y2="49.0"/>
<line stroke="#000000" x1="608.0" y1="49.0" x2="598.0" y2="164.0"/>
<line stroke="#000000" x1="598.0" y1="164.0" x2="723.0" y2="67.0"/>
<line stroke="#000000" x1="723.0" y1="67.0" x2="659.0" y2="250.0"/>
<line stroke="#000000" x1="391.0" y1="396.0" x2="310.0" y2="317.0"/>
<line stroke="#000000" x1="310.0" y1="317.0" x2="320.0" y2="52.0"/>
<line stroke="#000000" x1="320.0" y1="52.0" x2="463.0" y2="276.0"/>
<line stroke="#000000" x1="463.0" y1="276.0" x2="641.0" y2="220.0"/>
<line stroke="#000000" x1="641.0" y1="220.0" x2="502.0" y2="164.0"/>
<line stroke="#000000" x1="502.0" y1="164.0" x2="608.0" y2="49.0"/>
<line stroke="#000000" x1="608.0" y1="49.0" x2="598.0" y2="164.0"/>
<line stroke="#000000" x1="598.0" y1="164.0" x2="723.0" y2="67.0"/>
<line stroke="#000000" x1="723.0" y1="67.0" x2="609.0" y2="245.0"/>
<line stroke="#000000" x1="609.0" y1="245.0" x2="495.0" y2="91.0"/>
<line stroke="#000000" x1="495.0" y1="91.0" x2="725.0" y2="220.0"/>
<line stroke="#000000" x1="391.0" y1="396.0" x2="310.0" y2="317.0"/>
<line stroke="#000000" x1="310.0" y1="317.0" x2="320.0" y2="52.0"/>
<line stroke="#000000" x1="320.0" y1="52.0" x2="508.0" y2="216.0"/>
<line stroke="#000000" x1="508.0" y1="216.0" x2="430.0" y2="152.0"/>
<line stroke="#000000" x1="430.0" y1="152.0" x2="463.0" y2="276.0"/>
<line stroke="#000000" x1="463.0" y1="276.0" x2="641.0" y2="220.0"/>
<line stroke="#000000" x1="641.0" y1="220.0" x2="525.0" y2="246.0"/>
<line stroke="#000000" x1="525.0" y1="246.0" x2="608.0" y2="49.0"/>
<line stroke="#000000" x1="608.0" y1="49.0" x2="598.0" y2="164.0"/>
<line stroke="#000000" x1="598.0" y1="164.0" x2="723.0" y2="67.0"/>
<line stroke="#000000" x1="723.0" y1="67.0" x2="609.0" y2="245.0"/>
<line stroke="#000000" x1="609.0" y1="245.0" x2="495.0" y2="91.0"/>
<line stroke="#000000" x1="495.0" y1="91.0" x2="633.0" y2="196.0"/>
<line stroke="#000000" x1="633.0" y1="196.0" x2="680.0" y2="49.0"/>
<line stroke="#000000" x1="680.0" y1="49.0" x2="723.0" y2="170.0"/>
<line stroke="#000000" x1="391.0" y1="396.0" x2="310.0" y2="317.0"/>
<line stroke="#000000" x1="310.0" y1="317.0" x2="320.0" y2="52.0"/>
<line stroke="#000000" x1="320.0" y1="52.0" x2="492.0" y2="179.0"/>
<line stroke="#000000" x1="492.0" y1="179.0" x2="463.0" y2="276.0"/>
<line stroke="#000000" x1="463.0" y1="276.0" x2="641.0" y2="220.0"/>
<line stroke="#000000" x1="641.0" y1="220.0" x2="502.0" y2="164.0"/>
<line stroke="#000000" x1="502.0" y1="164.0" x2="608.0" y2="49.0"/>
<line stroke="#000000" x1="608.0" y1="49.0" x2="710.0" y2="218.0"/>
<line stroke="#000000" x1="710.0" y1="218.0" x2="608.0" y2="221.0"/>
<line stroke="#000000" x1="608.0" y1="221.0" x2="495.0" y2="91.0"/>
<line stroke="#000000" x1="495.0" y1="91.0" x2="724.0" y2="213.0"/>
<line stroke="#000000" x1="724.0" y1="213.0" x2="577.0" y2="64.0"/>
<line stroke="#000000" x1="577.0" y1="64.0" x2="719.0" y2="110.0"/>
<line stroke="#000000" x1="391.0" y1="396.0" x2="310.0" y2="317.0"/>
<line stroke="#000000" x1="310.0" y1="317.0" x2="320.0" y2="52.0"/>
<line stroke="#000000" x1="320.0" y1="52.0" x2="369.0" y2="158.0"/>
<line stroke="#000000" x1="369.0" y1="158.0" x2="506.0" y2="206.0"/>
<line stroke="#000000" x1="506.0" y1="206.0" x2="641.0" y2="220.0"/>
<line stroke="#000000" x1="641.0" y1="220.0" x2="525.0" y2="246.0"/>
<line stroke="#000000" x1="525.0" y1="246.0" x2="723.0" y2="67.0"/>
<line stroke="#000000" x1="723.0" y1="67.0" x2="710.0" y2="218.0"/>
<line stroke="#000000" x1="710.0" y1="218.0" x2="609.0" y2="247.0"/>
<line stroke="#000000" x1="609.0" y1="247.0" x2="495.0" y2="91.0"/>
<line stroke="#000000" x1="495.0" y1="91.0" x2="633.0" y2="196.0"/>
<line stroke="#000000" x1="633.0" y1="196.0" x2="577.0" y2="64.0"/>
<line stroke="#000000" x1="577.0" y1="64.0" x2="714.0" y2="38.0"/>
<line stroke="#000000" x1="714.0" y1="38.0" x2="668.0" y2="148.0"/>
<line stroke="#000000" x1="668.0" y1="148.0" x2="756.0" y2="68.0"/>
<line stroke="#000000" x1="756.0" y1="68.0" x2="722.0" y2="165.0"/>
<line stroke="#000000" x1="722.0" y1="165.0" x2="476.0" y2="111.0"/>
<line stroke="#000000" x1="476.0" y1="111.0" x2="623.0" y2="110.0"/>
<line stroke="#000000" x1="623.0" y1="110.0" x2="508.0" y2="8.0"/>
<line stroke="#000000" x1="508.0" y1="8.0" x2="717.0" y2="94.0"/>
<line stroke="#000000" x1="717.0" y1="94.0" x2="600.0" y2="159.0"/>
<line stroke="#000000" x1="600.0" y1="159.0" x2="498.0" y2="190.0"/>
<line stroke="#000000" x1="498.0" y1="190.0" x2="600.0" y2="43.0"/>
<line stroke="#000000" x1="391.0" y1="396.0" x2="281.0" y2="292.0"/>
<line stroke="#000000" x1="281.0" y1="292.0" x2="320.0" y2="52.0"/>
<line stroke="#000000" x1="320.0" y1="52.0" x2="463.0" y2="276.0"/>
<line stroke="#000000" x1="463.0" y1="276.0" x2="641.0" y2="220.0"/>
<line stroke="#000000" x1="641.0" y1="220.0" x2="525.0" y2="246.0"/>
<line stroke="#000000" x1="525.0" y1="246.0" x2="608.0" y2="49.0"/>
<line stroke="#000000" x1="608.0" y1="49.0" x2="598.0" y2="164.0"/>
<line stroke="#000000" x1="598.0" y1="164.0" x2="652.0" y2="50.0"/>
<line stroke="#000000" x1="652.0" y1="50.0" x2="710.0" y2="218.0"/>
<line stroke="#000000" x1="710.0" y1="218.0" x2="609.0" y2="245.0"/>
<line stroke="#000000" x1="609.0" y1="245.0" x2="495.0" y2="91.0"/>
<line stroke="#000000" x1="495.0" y1="91.0" x2="633.0" y2="196.0"/>
<line stroke="#000000" x1="633.0" y1="196.0" x2="626.0" y2="52.0"/>
<line stroke="#000000" x1="626.0" y1="52.0" x2="646.0" y2="191.0"/>
<line stroke="#000000" x1="646.0" y1="191.0" x2="594.0" y2="57.0"/>
<line stroke="#000000" x1="594.0" y1="57.0" x2="714.0" y2="38.0"/>
<line stroke="#000000" x1="714.0" y1="38.0" x2="668.0" y2="148.0"/>
<line stroke="#000000" x1="668.0" y1="148.0" x2="756.0" y2="68.0"/>
<line stroke="#000000" x1="756.0" y1="68.0" x2="722.0" y2="163.0"/>
<line stroke="#000000" x1="722.0" y1="163.0" x2="476.0" y2="111.0"/>
<line stroke="#000000" x1="476.0" y1="111.0" x2="623.0" y2="110.0"/>
<line stroke="#000000" x1="623.0" y1="110.0" x2="508.0" y2="8.0"/>
<line stroke="#000000" x1="508.0" y1="8.0" x2="614.0" y2="83.0"/>
<line stroke="#000000" x1="614.0" y1="83.0" x2="729.0" y2="53.0"/>
<line stroke="#000000" x1="729.0" y1="53.0" x2="582.0" y2="192.0"/>
<line stroke="#000000" x1="582.0" y1="192.0" x2="460.0" y2="145.0"/>
<line stroke="#000000" x1="460.0" y1="145.0" x2="560.0" y2="52.0"/>
<line stroke="#000000" x1="560.0" y1="52.0" x2="718.0" y2="110.0"/>
<line stroke="#000000" x1="718.0" y1="110.0" x2="680.0" y2="213.0"/>
<line stroke="#000000" x1="680.0" y1="213.0" x2="470.0" y2="111.0"/>
<line stroke="#000000" x1="391.0" y1="396.0" x2="310.0" y2="317.0"/>
<line stroke="#000000" x1="310.0" y1="317.0" x2="320.0" y2="52.0"/>
<line stroke="#000000" x1="320.0" y1="52.0" x2="369.0" y2="158.0"/>
<line stroke="#000000" x1="369.0" y1="158.0" x2="499.0" y2="193.0"/>
<line stroke="#000000" x1="499.0" y1="193.0" x2="448.0" y2="284.0"/>
<line stroke="#000000" x1="448.0" y1="284.0" x2="641.0" y2="220.0"/>
<line stroke="#000000" x1="641.0" y1="220.0" x2="525.0" y2="246.0"/>
<line stroke="#000000" x1="525.0" y1="246.0" x2="631.0" y2="241.0"/>
<line stroke="#000000" x1="631.0" y1="241.0" x2="487.0" y2="178.0"/>
<line stroke="#000000" x1="487.0" y1="178.0" x2="652.0" y2="50.0"/>
<line stroke="#000000" x1="652.0" y1="50.0" x2="710.0" y2="218.0"/>
<line stroke="#000000" x1="710.0" y1="218.0" x2="609.0" y2="245.0"/>
<line stroke="#000000" x1="609.0" y1="245.0" x2="495.0" y2="91.0"/>
<line stroke="#000000" x1="495.0" y1="91.0" x2="633.0" y2="196.0"/>
<line stroke="#000000" x1="633.0" y1="196.0" x2="658.0" y2="47.0"/>
<line stroke="#000000" x1="658.0" y1="47.0" x2="668.0" y2="148.0"/>
<line stroke="#000000" x1="668.0" y1="148.0" x2="756.0" y2="68.0"/>
<line stroke="#000000" x1="756.0" y1="68.0" x2="722.0" y2="168.0"/>
<line stroke="#000000" x1="722.0" y1="168.0" x2="476.0" y2="111.0"/>
<line stroke="#000000" x1="476.0" y1="111.0" x2="710.0" y2="33.0"/>
<line stroke="#000000" x1="710.0" y1="33.0" x2="600.0" y2="159.0"/>
<line stroke="#000000" x1="600.0" y1="159.0" x2="456.0" y2="111.0"/>
<line stroke="#000000" x1="456.0" y1="111.0" x2="718.0" y2="110.0"/>
<line stroke="#000000" x1="718.0" y1="110.0" x2="686.0" y2="206.0"/>
<line stroke="#000000" x1="686.0" y1="206.0" x2="564.0" y2="235.0"/>
<line stroke="#000000" x1="564.0" y1="235.0" x2="510.0" y2="56.0"/>
<line stroke="#000000" x1="391.0" y1="396.0" x2="281.0" y2="292.0"/>
<line stroke="#000000" x1="281.0" y1="292.0" x2="320.0" y2="52.0"/>
<line stroke="#000000" x1="320.0" y1="52.0" x2="463.0" y2="276.0"/>
<line stroke="#000000" x1="463.0" y1="276.0" x2="560.0" y2="192.0"/>
<line stroke="#000000" x1="560.0" y1="192.0" x2="608.0" y2="49.0"/>
<line stroke="#000000" x1="608.0" y1="49.0" x2="601.0" y2="165.0"/>
<line stroke="#000000" x1="601.0" y1="165.0" x2="652.0" y2="50.0"/>
<line stroke="#000000" x1="652.0" y1="50.0" x2="710.0" y2="218.0"/>
<line stroke="#000000" x1="710.0" y1="218.0" x2="609.0" y2="245.0"/>
<line stroke="#000000" x1="609.0" y1="245.0" x2="495.0" y2="91.0"/>
<line stroke="#000000" x1="495.0" y1="91.0" x2="633.0" y2="196.0"/>
<line stroke="#000000" x1="633.0" y1="196.0" x2="626.0" y2="52.0"/>
<line stroke="#000000" x1="626.0" y1="52.0" x2="646.0" y2="191.0"/>
<line stroke="#000000" x1="646.0" y1="191.0" x2="582.0" y2="63.0"/>
<line stroke="#000000" x1="582.0" y1="63.0" x2="714.0" y2="38.0"/>
<line stroke="#000000" x1="714.0" y1="38.0" x2="668.0" y2="148.0"/>
<line stroke="#000000" x1="668.0" y1="148.0" x2="756.0" y2="68.0"/>
<line stroke="#000000" x1="756.0" y1="68.0" x2="722.0" y2="163.0"/>
<line stroke="#000000" x1="722.0" y1="163.0" x2="476.0" y2="111.0"/>
<line stroke="#000000" x1="476.0" y1="111.0" x2="623.0" y2="110.0"/>
<line stroke="#000000" x1="623.0" y1="110.0" x2="508.0" y2="8.0"/>
<line stroke="#000000" x1="508.0" y1="8.0" x2="614.0" y2="83.0"/>
<line stroke="#000000" x1="614.0" y1="83.0" x2="731.0" y2="56.0"/>
<line stroke="#000000" x1="731.0" y1="56.0" x2="564.0" y2="235.0"/>
<line stroke="#000000" x1="564.0" y1="235.0" x2="460.0" y2="145.0"/>
<line stroke="#000000" x1="460.0" y1="145.0" x2="558.0" y2="88.0"/>
<line stroke="#000000" x1="558.0" y1="88.0" x2="715.0" y2="139.0"/>
<line stroke="#000000" x1="715.0" y1="139.0" x2="568.0" y2="237.0"/>
<line stroke="#000000" x1="568.0" y1="237.0" x2="454.0" y2="125.0"/>
<line stroke="#000000" x1="391.0" y1="396.0" x2="281.0" y2="292.0"/>
<line stroke="#000000" x1="281.0" y1="292.0" x2="320.0" y2="52.0"/>
<line stroke="#000000" x1="320.0" y1="52.0" x2="463.0" y2="276.0"/>
<line stroke="#000000" x1="463.0" y1="276.0" x2="560.0" y2="192.0"/>
<line stroke="#000000" x1="560.0" y1="192.0" x2="608.0" y2="49.0"/>
<line stroke="#000000" x1="608.0" y1="49.0" x2="598.0" y2="164.0"/>
<line stroke="#000000" x1="598.0" y1="164.0" x2="652.0" y2="50.0"/>
<line stroke="#000000" x1="652.0" y1="50.0" x2="710.0" y2="218.0"/>
<line stroke="#000000" x1="710.0" y1="218.0" x2="609.0" y2="245.0"/>
<line stroke="#000000" x1="609.0" y1="245.0" x2="495.0" y2="91.0"/>
<line stroke="#000000" x1="495.0" y1="91.0" x2="633.0" y2="196.0"/>
<line stroke="#000000" x1="633.0" y1="196.0" x2="626.0" y2="52.0"/>
<line stroke="#000000" x1="626.0" y1="52.0" x2="646.0" y2="191.0"/>
<line stroke="#000000" x1="646.0" y1="191.0" x2="586.0" y2="61.0"/>
<line stroke="#000000" x1="586.0" y1="61.0" x2="714.0" y2="38.0"/>
<line stroke="#000000" x1="714.0" y1="38.0" x2="668.0" y2="148.0"/>
<line stroke="#000000" x1="668.0" y1="148.0" x2="756.0" y2="68.0"/>
<line stroke="#000000" x1="756.0" y1="68.0" x2="722.0" y2="163.0"/>
<line stroke="#000000" x1="722.0" y1="163.0" x2="476.0" y2="111.0"/>
<line stroke="#000000" x1="476.0" y1="111.0" x2="623.0" y2="110.0"/>
<line stroke="#000000" x1="623.0" y1="110.0" x2="508.0" y2="8.0"/>
<line stroke="#000000" x1="508.0" y1="8.0" x2="614.0" y2="83.0"/>
<line stroke="#000000" x1="614.0" y1="83.0" x2="729.0" y2="53.0"/>
<line stroke="#000000" x1="729.0" y1="53.0" x2="582.0" y2="192.0"/>
<line stroke="#000000" x1="582.0" y1="192.0" x2="502.0" y2="29.0"/>
<line stroke="#000000" x1="502.0" y1="29.0" x2="718.0" y2="110.0"/>
<line stroke="#000000" x1="718.0" y1="110.0" x2="683.0" y2="210.0"/>
<line stroke="#000000" x1="683.0" y1="210.0" x2="412.0" y2="105.0"/>
<line stroke="#000000" x1="391.0" y1="396.0" x2="281.0" y2="292.0"/>
<line stroke="#000000" x1="281.0" y1="292.0" x2="320.0" y2="52.0"/>
<line stroke="#000000" x1="320.0" y1="52.0" x2="478.0" y2="159.0"/>
<line stroke="#000000" x1="478.0" y1="159.0" x2="441.0" y2="286.0"/>
<line stroke="#000000" x1="441.0" y1="286.0" x2="560.0" y2="192.0"/>
<line stroke="#000000" x1="560.0" y1="192.0" x2="608.0" y2="49.0"/>
<line stroke="#000000" x1="608.0" y1="49.0" x2="598.0" y2="164.0"/>
<line stroke="#000000" x1="598.0" y1="164.0" x2="652.0" y2="50.0"/>
<line stroke="#000000" x1="652.0" y1="50.0" x2="710.0" y2="218.0"/>
<line stroke="#000000" x1="710.0" y1="218.0" x2="609.0" y2="245.0"/>
<line stroke="#000000" x1="609.0" y1="245.0" x2="495.0" y2="91.0"/>
<line stroke="#000000" x1="495.0" y1="91.0" x2="633.0" y2="196.0"/>
<line stroke="#000000" x1="633.0" y1="196.0" x2="626.0" y2="52.0"/>
<line stroke="#000000" x1="626.0" y1="52.0" x2="646.0" y2="191.0"/>
<line stroke="#000000" x1="646.0" y1="191.0" x2="607.0" y2="53.0"/>
<line stroke="#000000" x1="607.0" y1="53.0" x2="721.0" y2="150.0"/>
<line stroke="#000000" x1="721.0" y1="150.0" x2="476.0" y2="111.0"/>
<line stroke="#000000" x1="476.0" y1="111.0" x2="710.0" y2="33.0"/>
<line stroke="#000000" x1="710.0" y1="33.0" x2="600.0" y2="159.0"/>
<line stroke="#000000" x1="600.0" y1="159.0" x2="500.0" y2="194.0"/>
<line stroke="#000000" x1="500.0" y1="194.0" x2="595.0" y2="44.0"/>
<line stroke="#000000" x1="595.0" y1="44.0" x2="716.0" y2="135.0"/>
<line stroke="#000000" x1="716.0" y1="135.0" x2="568.0" y2="237.0"/>
<line stroke="#000000" x1="568.0" y1="237.0" x2="414.0" y2="61.0"/>
<line stroke="#000000" x1="391.0" y1="396.0" x2="253.0" y2="297.0"/>
<line stroke="#000000" x1="253.0" y1="297.0" x2="364.0" y2="287.0"/>
<line stroke="#000000" x1="364.0" y1="287.0" x2="320.0" y2="52.0"/>
<line stroke="#000000" x1="320.0" y1="52.0" x2="424.0" y2="116.0"/>
<line stroke="#000000" x1="424.0" y1="116.0" x2="463.0" y2="276.0"/>
<line stroke="#000000" x1="463.0" y1="276.0" x2="560.0" y2="192.0"/>
<line stroke="#000000" x1="560.0" y1="192.0" x2="608.0" y2="49.0"/>
<line stroke="#000000" x1="608.0" y1="49.0" x2="598.0" y2="164.0"/>
<line stroke="#000000" x1="598.0" y1="164.0" x2="652.0" y2="50.0"/>
<line stroke="#000000" x1="652.0" y1="50.0" x2="710.0" y2="218.0"/>
<line stroke="#000000" x1="710.0" y1="218.0" x2="609.0" y2="245.0"/>
<line stroke="#000000" x1="609.0" y1="245.0" x2="495.0" y2="91.0"/>
<line stroke="#000000" x1="495.0" y1="91.0" x2="633.0" y2="196.0"/>
<line stroke="#000000" x1="633.0" y1="196.0" x2="626.0" y2="52.0"/>
<line stroke="#000000" x1="626.0" y1="52.0" x2="646.0" y2="191.0"/>
<line stroke="#000000" x1="646.0" y1="191.0" x2="586.0" y2="61.0"/>
<line stroke="#000000" x1="586.0" y1="61.0" x2="722.0" y2="165.0"/>
<line stroke="#000000" x1="722.0" y1="165.0" x2="476.0" y2="111.0"/>
<line stroke="#000000" x1="476.0" y1="111.0" x2="623.0" y2="110.0"/>
<line stroke="#000000" x1="623.0" y1="110.0" x2="508.0" y2="8.0"/>
<line stroke="#000000" x1="508.0" y1="8.0" x2="712.0" y2="74.0"/>
<line stroke="#000000" x1="712.0" y1="74.0" x2="582.0" y2="192.0"/>
<line stroke="#000000" x1="582.0" y1="192.0" x2="502.0" y2="29.0"/>
<line stroke="#000000" x1="502.0" y1="29.0" x2="718.0" y2="110.0"/>
<line stroke="#000000" x1="718.0" y1="110.0" x2="683.0" y2="210.0"/>
<line stroke="#000000" x1="683.0" y1="210.0" x2="279.0" y2="55.0"/>
</g>
</svg>
