<svg xmlns="http://www.w3.org/2000/svg" width="1000.0px" height="1000.0px" viewBox="0.0 0.0 1000.0 1000.0">
<g>
<line stroke="#000000" x1="491.0" y1="496.0" x2="410.0" y2="417.0"/>
<line stroke="#000000" x1="410.0" y1="417.0" x2="506.0" y2="550.0"/>
<line stroke="#000000" x1="506.0" y1="550.0" x2="381.0" y2="392.0"/>
<line stroke="#000000" x1="381.0" y1="392.0" x2="350.0" y2="398.0"/>
<line stroke="#000000" x1="410.0" y1="417.0" x2="506.0" y2="550.0"/>
<line stroke="#000000" x1="506.0" y1="550.0" x2="381.0" y2="392.0"/>
<line stroke="#000000" x1="381.0" y1="392.0" x2="350.0" y2="398.0"/>
<line stroke="#000000" x1="597.0" y1="289.0" x2="599.0" y2="403.0"/>
<line stroke="#000000" x1="586.0" y1="445.0" x2="575.0" y2="469.0"/>
<line stroke="#000000" x1="575.0" y1="469.0" x2="561.0" y2="492.0"/>
<line stroke="#000000" x1="561.0" y1="492.0" x2="545.0" y2="513.0"/>
<line stroke="#000000" x1="545.0" y1="513.0" x2="491.0" y2="496.0"/>
<line stroke="#000000" x1="491.0" y1="496.0" x2="410.0" y2="417.0"/>
<line stroke="#000000" x1="410.0" y1="417.0" x2="506.0" y2="550.0"/>
<line stroke="#000000" x1="506.0" y1="550.0" x2="360.0" y2="397.0"/>
<line stroke="#000000" x1="350.0" y1="95.0" x2="411.0" y2="103.0"/>
<line stroke="#000000" x1="411.0" y1="103.0" x2="550.0" y2="194.0"/>
<line stroke="#000000" x1="550.0" y1="506.0" x2="533.0" y2="527.0"/>
<line stroke="#000000" x1="533.0" y1="527.0" x2="491.0" y2="496.0"/>
<line stroke="#000000" x1="491.0" y1="496.0" x2="410.0" y2="417.0"/>
<line stroke="#000000" x1="410.0" y1="417.0" x2="506.0" y2="550.0"/>
<line stroke="#000000" x1="506.0" y1="550.0" x2="381.0" y2="392.0"/>
<line stroke="#000000" x1="381.0" y1="392.0" x2="350.0" y2="398.0"/>
<line stroke="#000000" x1="499.0" y1="144.0" x2="533.0" y2="173.0"/>
<line stroke="#000000" x1="533.0" y1="173.0" x2="566.0" y2="215.0"/>
<line stroke="#000000" x1="566.0" y1="215.0" x2="595.0" y2="280.0"/>
<line stroke="#000000" x1="595.0" y1="280.0" x2="592.0" y2="428.0"/>
<line stroke="#000000" x1="491.0" y1="496.0" x2="410.0" y2="417.0"/>
<line stroke="#000000" x1="360.0" y1="397.0" x2="353.0" y2="397.0"/>
<line stroke="#000000" x1="506.0" y1="150.0" x2="566.0" y2="215.0"/>
<line stroke="#000000" x1="579.0" y1="239.0" x2="582.0" y2="247.0"/>
<line stroke="#000000" x1="602.0" y1="385.0" x2="589.0" y2="437.0"/>
<line stroke="#000000" x1="361.0" y1="397.0" x2="350.0" y2="398.0"/>
<line stroke="#000000" x1="350.0" y1="95.0" x2="513.0" y2="155.0"/>
<line stroke="#000000" x1="556.0" y1="201.0" x2="579.0" y2="239.0"/>
<line stroke="#000000" x1="579.0" y1="239.0" x2="597.0" y2="289.0"/>
<line stroke="#000000" x1="597.0" y1="289.0" x2="602.0" y2="385.0"/>
<line stroke="#000000" x1="602.0" y1="385.0" x2="566.0" y2="485.0"/>
<line stroke="#000000" x1="545.0" y1="513.0" x2="491.0" y2="496.0"/>
<line stroke="#000000" x1="491.0" y1="496.0" x2="410.0" y2="417.0"/>
<line stroke="#000000" x1="410.0" y1="417.0" x2="506.0" y2="550.0"/>
<line stroke="#000000" x1="506.0" y1="550.0" x2="381.0" y2="392.0"/>
<line stroke="#000000" x1="381.0" y1="392.0" x2="350.0" y2="398.0"/>
<line stroke="#000000" x1="350.0" y1="95.0" x2="513.0" y2="155.0"/>
<line stroke="#000000" x1="561.0" y1="208.0" x2="575.0" y2="231.0"/>
<line stroke="#000000" x1="575.0" y1="231.0" x2="586.0" y2="255.0"/>
<line stroke="#000000" x1="586.0" y1="255.0" x2="595.0" y2="280.0"/>
<line stroke="#000000" x1="595.0" y1="280.0" x2="601.0" y2="306.0"/>
<line stroke="#000000" x1="601.0" y1="306.0" x2="604.0" y2="333.0"/>
<line stroke="#000000" x1="604.0" y1="333.0" x2="604.0" y2="358.0"/>
<line stroke="#000000" x1="604.0" y1="358.0" x2="602.0" y2="385.0"/>
<line stroke="#000000" x1="602.0" y1="385.0" x2="597.0" y2="411.0"/>
<line stroke="#000000" x1="597.0" y1="411.0" x2="589.0" y2="437.0"/>
<line stroke="#000000" x1="589.0" y1="437.0" x2="579.0" y2="461.0"/>
<line stroke="#000000" x1="579.0" y1="461.0" x2="566.0" y2="485.0"/>
<line stroke="#000000" x1="566.0" y1="485.0" x2="550.0" y2="506.0"/>
<line stroke="#000000" x1="550.0" y1="506.0" x2="533.0" y2="527.0"/>
<line stroke="#000000" x1="533.0" y1="527.0" x2="491.0" y2="496.0"/>
<line stroke="#000000" x1="491.0" y1="496.0" x2="410.0" y2="417.0"/>
<line stroke="#000000" x1="410.0" y1="417.0" x2="506.0" y2="550.0"/>
<line stroke="#000000" x1="506.0" y1="550.0" x2="381.0" y2="392.0"/>
<line stroke="#000000" x1="368.0" y1="396.0" x2="350.0" y2="398.0"/>
<line stroke="#000000" x1="350.0" y1="95.0" x2="376.0" y2="97.0"/>
<line stroke="#000000" x1="376.0" y1="97.0" x2="403.0" y2="101.0"/>
<line stroke="#000000" x1="403.0" y1="101.0" x2="428.0" y2="108.0"/>
<line stroke="#000000" x1="428.0" y1="108.0" x2="453.0" y2="118.0"/>
<line stroke="#000000" x1="453.0" y1="118.0" x2="477.0" y2="130.0"/>
<line stroke="#000000" x1="477.0" y1="130.0" x2="499.0" y2="144.0"/>
<line stroke="#000000" x1="499.0" y1="144.0" x2="520.0" y2="161.0"/>
<line stroke="#000000" x1="520.0" y1="161.0" x2="539.0" y2="180.0"/>
<line stroke="#000000" x1="539.0" y1="180.0" x2="556.0" y2="201.0"/>
<line stroke="#000000" x1="556.0" y1="201.0" x2="570.0" y2="223.0"/>
<line stroke="#000000" x1="570.0" y1="223.0" x2="582.0" y2="247.0"/>
<line stroke="#000000" x1="582.0" y1="247.0" x2="592.0" y2="272.0"/>
<line stroke="#000000" x1="592.0" y1="272.0" x2="599.0" y2="297.0"/>
<line stroke="#000000" x1="599.0" y1="297.0" x2="603.0" y2="324.0"/>
<line stroke="#000000" x1="603.0" y1="324.0" x2="605.0" y2="350.0"/>
<line stroke="#000000" x1="605.0" y1="350.0" x2="603.0" y2="376.0"/>
<line stroke="#000000" x1="603.0" y1="376.0" x2="599.0" y2="403.0"/>
<line stroke="#000000" x1="599.0" y1="403.0" x2="592.0" y2="428.0"/>
<line stroke="#000000" x1="592.0" y1="428.0" x2="582.0" y2="453.0"/>
<line stroke="#000000" x1="582.0" y1="453.0" x2="570.0" y2="477.0"/>
<line stroke="#000000" x1="570.0" y1="477.0" x2="556.0" y2="499.0"/>
<line stroke="#000000" x1="556.0" y1="499.0" x2="539.0" y2="520.0"/>
<line stroke="#000000" x1="539.0" y1="520.0" x2="491.0" y2="496.0"/>
<line stroke="#000000" x1="491.0" y1="496.0" x2="410.0" y2="417.0"/>
<line stroke="#000000" x1="410.0" y1="417.0" x2="506.0" y2="550.0"/>
<line stroke="#000000" x1="506.0" y1="550.0" x2="381.0" y2="392.0"/>
<line stroke="#000000" x1="381.0" y1="392.0" x2="350.0" y2="398.0"/>
<line stroke="#000000" x1="350.0" y1="95.0" x2="376.0" y2="97.0"/>
<line stroke="#000000" x1="376.0" y1="97.0" x2="403.0" y2="101.0"/>
<line stroke="#000000" x1="403.0" y1="101.0" x2="428.0" y2="108.0"/>
<line stroke="#000000" x1="428.0" y1="108.0" x2="453.0" y2="118.0"/>
<line stroke="#000000" x1="453.0" y1="118.0" x2="477.0" y2="130.0"/>
<line stroke="#000000" x1="477.0" y1="130.0" x2="499.0" y2="144.0"/>
<line stroke="#000000" x1="499.0" y1="144.0" x2="520.0" y2="161.0"/>
<line stroke="#000000" x1="520.0" y1="161.0" x2="539.0" y2="180.0"/>
<line stroke="#000000" x1="539.0" y1="180.0" x2="556.0" y2="201.0"/>
<line stroke="#000000" x1="556.0" y1="201.0" x2="570.0" y2="223.0"/>
<line stroke="#000000" x1="570.0" y1="223.0" x2="582.0" y2="247.0"/>
<line stroke="#000000" x1="582.0" y1="247.0" x2="592.0" y2="272.0"/>
<line stroke="#000000" x1="592.0" y1="272.0" x2="599.0" y2="297.0"/>
<line stroke="#000000" x1="599.0" y1="297.0" x2="603.0" y2="324.0"/>
<line stroke="#000000" x1="603.0" y1="324.0" x2="605.0" y2="350.0"/>
<line stroke="#000000" x1="605.0" y1="350.0" x2="603.0" y2="376.0"/>
<line stroke="#000000" x1="603.0" y1="376.0" x2="599.0" y2="403.0"/>
<line stroke="#000000" x1="599.0" y1="403.0" x2="592.0" y2="428.0"/>
<line stroke="#000000" x1="592.0" y1="428.0" x2="582.0" y2="453.0"/>
<line stroke="#000000" x1="582.0" y1="453.0" x2="570.0" y2="477.0"/>
<line stroke="#000000" x1="570.0" y1="477.0" x2="556.0" y2="499.0"/>
<line stroke="#000000" x1="556.0" y1="499.0" x2="539.0" y2="520.0"/>
<line stroke="#000000" x1="539.0" y1="520.0" x2="491.0" y2="496.0"/>
<line stroke="#000000" x1="491.0" y1="496.0" x2="410.0" y2="417.0"/>
<line stroke="#000000" x1="410.0" y1="417.0" x2="506.0" y2="550.0"/>
<line stroke="#000000" x1="506.0" y1="550.0" x2="381.0" y2="392.0"/>
<line stroke="#000000" x1="381.0" y1="392.0" x2="350.0" y2="398.0"/>
<line stroke="#000000" x1="350.0" y1="95.0" x2="453.0" y2="118.0"/>
<line stroke="#000000" x1="520.0" y1="161.0" x2="539.0" y2="180.0"/>
<line stroke="#000000" x1="539.0" y1="180.0" x2="556.0" y2="201.0"/>
<line stroke="#000000" x1="556.0" y1="201.0" x2="570.0" y2="223.0"/>
<line stroke="#000000" x1="570.0" y1="223.0" x2="582.0" y2="247.0"/>
<line stroke="#000000" x1="582.0" y1="247.0" x2="592.0" y2="272.0"/>
<line stroke="#000000" x1="592.0" y1="272.0" x2="599.0" y2="297.0"/>
<line stroke="#000000" x1="599.0" y1="297.0" x2="603.0" y2="324.0"/>
<line stroke="#000000" x1="603.0" y1="324.0" x2="605.0" y2="350.0"/>
<line stroke="#000000" x1="605.0" y1="350.0" x2="603.0" y2="376.0"/>
<line stroke="#000000" x1="603.0" y1="376.0" x2="599.0" y2="403.0"/>
<line stroke="#000000" x1="599.0" y1="403.0" x2="592.0" y2="428.0"/>
<line stroke="#000000" x1="592.0" y1="428.0" x2="582.0" y2="453.0"/>
<line stroke="#000000" x1="582.0" y1="453.0" x2="570.0" y2="477.0"/>
<line stroke="#000000" x1="570.0" y1="477.0" x2="556.0" y2="499.0"/>
<line stroke="#000000" x1="556.0" y1="499.0" x2="539.0" y2="520.0"/>
<line stroke="#000000" x1="539.0" y1="520.0" x2="491.0" y2="496.0"/>
<line stroke="#000000" x1="491.0" y1="496.0" x2="410.0" y2="417.0"/>
<line stroke="#000000" x1="410.0" y1="417.0" x2="506.0" y2="550.0"/>
<line stroke="#000000" x1="506.0" y1="550.0" x2="381.0" y2="392.0"/>
<line stroke="#000000" x1="381.0" y1="392.0" x2="350.0" y2="398.0"/>
<line stroke="#000000" x1="350.0" y1="95.0" x2="453.0" y2="118.0"/>
<line stroke="#000000" x1="499.0" y1="144.0" x2="520.0" y2="161.0"/>
<line stroke="#000000" x1="520.0" y1="161.0" x2="539.0" y2="180.0"/>
<line stroke="#000000" x1="539.0" y1="180.0" x2="556.0" y2="201.0"/>
<line stroke="#000000" x1="556.0" y1="201.0" x2="570.0" y2="223.0"/>
<line stroke="#000000" x1="570.0" y1="223.0" x2="582.0" y2="247.0"/>
<line stroke="#000000" x1="582.0" y1="247.0" x2="592.0" y2="272.0"/>
<line stroke="#000000" x1="592.0" y1="272.0" x2="599.0" y2="297.0"/>
<line stroke="#000000" x1="599.0" y1="297.0" x2="603.0" y2="324.0"/>
<line stroke="#000000" x1="603.0" y1="324.0" x2="605.0" y2="350.0"/>
<line stroke="#000000" x1="605.0" y1="350.0" x2="603.0" y2="376.0"/>
<line stroke="#000000" x1="603.0" y1="376.0" x2="599.0" y2="403.0"/>
<line stroke="#000000" x1="599.0" y1="403.0" x2="592.0" y2="428.0"/>
<line stroke="#000000" x1="592.0" y1="428.0" x2="582.0" y2="453.0"/>
<line stroke="#000000" x1="582.0" y1="453.0" x2="570.0" y2="477.0"/>
<line stroke="#000000" x1="570.0" y1="477.0" x2="556.0" y2="499.0"/>
<line stroke="#000000" x1="556.0" y1="499.0" x2="539.0" y2="520.0"/>
<line stroke="#000000" x1="539.0" y1="520.0" x2="491.0" y2="496.0"/>
<line stroke="#000000" x1="491.0" y1="496.0" x2="410.0" y2="417.0"/>
<line stroke="#000000" x1="410.0" y1="417.0" x2="506.0" y2="550.0"/>
<line stroke="#000000" x1="506.0" y1="550.0" x2="381.0" y2="392.0"/>
<line stroke="#000000" x1="381.0" y1="392.0" x2="350.0" y2="398.0"/>
<line stroke="#000000" x1="350.0" y1="95.0" x2="428.0" y2="108.0"/>
<line stroke="#000000" x1="428.0" y1="108.0" x2="539.0" y2="180.0"/>
<line stroke="#000000" x1="539.0" y1="520.0" x2="491.0" y2="496.0"/>
<line stroke="#000000" x1="491.0" y1="496.0" x2="410.0" y2="417.0"/>
<line stroke="#000000" x1="410.0" y1="417.0" x2="506.0" y2="550.0"/>
<line stroke="#000000" x1="506.0" y1="550.0" x2="381.0" y2="392.0"/>
<line stroke="#000000" x1="381.0" y1="392.0" x2="350.0" y2="398.0"/>
<line stroke="#000000" x1="492.0" y1="139.0" x2="520.0" y2="161.0"/>
<line stroke="#000000" x1="520.0" y1="161.0" x2="545.0" y2="187.0"/>
<line stroke="#000000" x1="545.0" y1="187.0" x2="570.0" y2="223.0"/>
<line stroke="#000000" x1="570.0" y1="223.0" x2="592.0" y2="272.0"/>
<line stroke="#000000" x1="592.0" y1="272.0" x2="605.0" y2="350.0"/>
<line stroke="#000000" x1="605.0" y1="350.0" x2="570.0" y2="477.0"/>
<line stroke="#000000" x1="373.0" y1="395.0" x2="371.0" y2="394.0"/>
<line stroke="#000000" x1="363.0" y1="397.0" x2="350.0" y2="398.0"/>
<line stroke="#000000" x1="350.0" y1="95.0" x2="385.0" y2="98.0"/>
<line stroke="#000000" x1="385.0" y1="98.0" x2="420.0" y2="105.0"/>
<line stroke="#000000" x1="420.0" y1="105.0" x2="453.0" y2="118.0"/>
<line stroke="#000000" x1="453.0" y1="118.0" x2="492.0" y2="139.0"/>
<line stroke="#000000" x1="492.0" y1="139.0" x2="527.0" y2="167.0"/>
<line stroke="#000000" x1="527.0" y1="167.0" x2="566.0" y2="215.0"/>
<line stroke="#000000" x1="566.0" y1="215.0" x2="601.0" y2="394.0"/>
<line stroke="#000000" x1="533.0" y1="527.0" x2="491.0" y2="496.0"/>
<line stroke="#000000" x1="491.0" y1="496.0" x2="410.0" y2="417.0"/>
<line stroke="#000000" x1="410.0" y1="417.0" x2="506.0" y2="550.0"/>
<line stroke="#000000" x1="506.0" y1="550.0" x2="381.0" y2="392.0"/>
<line stroke="#000000" x1="381.0" y1="392.0" x2="350.0" y2="398.0"/>
</g>
</svg>
