<svg xmlns="http://www.w3.org/2000/svg" width="255.0px" height="255.0px" viewBox="0.0 0.0 255.0 255.0">
<g>
<line stroke="#000000" x1="79.0" y1="215.0" x2="81.0" y2="240.0"/>
<line stroke="#000000" x1="81.0" y1="240.0" x2="186.0" y2="227.0"/>
<line stroke="#000000" x1="79.0" y1="215.0" x2="82.0" y2="240.0"/>
<line stroke="#000000" x1="82.0" y1="240.0" x2="186.0" y2="227.0"/>
<line stroke="#000000" x1="79.0" y1="215.0" x2="84.0" y2="239.0"/>
<line stroke="#000000" x1="84.0" y1="239.0" x2="186.0" y2="227.0"/>
<line stroke="#000000" x1="79.0" y1="215.0" x2="84.0" y2="242.0"/>
<line stroke="#000000" x1="84.0" y1="242.0" x2="186.0" y2="227.0"/>
<line stroke="#000000" x1="79.0" y1="215.0" x2="85.0" y2="241.0"/>
<line stroke="#000000" x1="85.0" y1="241.0" x2="186.0" y2="227.0"/>
<line stroke="#000000" x1="79.0" y1="215.0" x2="86.0" y2="241.0"/>
<line stroke="#000000" x1="86.0" y1="241.0" x2="186.0" y2="227.0"/>
<line stroke="#000000" x1="79.0" y1="215.0" x2="87.0" y2="242.0"/>
<line stroke="#000000" x1="87.0" y1="242.0" x2="186.0" y2="227.0"/>
<line stroke="#000000" x1="79.0" y1="215.0" x2="88.0" y2="243.0"/>
<line stroke="#000000" x1="88.0" y1="243.0" x2="186.0" y2="227.0"/>
<line stroke="#000000" x1="79.0" y1="215.0" x2="89.0" y2="242.0"/>
<line stroke="#000000" x1="89.0" y1="242.0" x2="186.0" y2="227.0"/>
<line stroke="#000000" x1="79.0" y1="215.0" x2="90.0" y2="243.0"/>
<line stroke="#000000" x1="90.0" y1="243.0" x2="186.0" y2="227.0"/>
<line stroke="#000000" x1="79.0" y1="215.0" x2="91.0" y2="243.0"/>
<line stroke="#000000" x1="91.0" y1="243.0" x2="186.0" y2="227.0"/>
<line stroke="#000000" x1="79.0" y1="215.0" x2="92.0" y2="243.0"/>
<line stroke="#000000" x1="92.0" y1="243.0" x2="186.0" y2="227.0"/>
<line stroke="#000000" x1="79.0" y1="215.0" x2="93.0" y2="244.0"/>
<line stroke="#000000" x1="93.0" y1="244.0" x2="186.0" y2="227.0"/>
<line stroke="#000000" x1="79.0" y1="215.0" x2="94.0" y2="244.0"/>
<line stroke="#000000" x1="94.0" y1="244.0" x2="186.0" y2="227.0"/>
<line stroke="#000000" x1="79.0" y1="215.0" x2="95.0" y2="244.0"/>
<line stroke="#000000" x1="95.0" y1="244.0" x2="186.0" y2="227.0"/>
<line stroke="#000000" x1="79.0" y1="215.0" x2="96.0" y2="244.0"/>
<line stroke="#000000" x1="96.0" y1="244.0" x2="186.0" y2="227.0"/>
<line stroke="#000000" x1="79.0" y1="215.0" x2="97.0" y2="244.0"/>
<line stroke="#000000" x1="97.0" y1="244.0" x2="186.0" y2="227.0"/>
<line stroke="#000000" x1="79.0" y1="215.0" x2="98.0" y2="244.0"/>
<line stroke="#000000" x1="98.0" y1="244.0" x2="186.0" y2="227.0"/>
<line stroke="#000000" x1="79.0" y1="215.0" x2="99.0" y2="244.0"/>
<line stroke="#000000" x1="99.0" y1="244.0" x2="186.0" y2="227.0"/>
<line stroke="#000000" x1="79.0" y1="215.0" x2="100.0" y2="245.0"/>
<line stroke="#000000" x1="100.0" y1="245.0" x2="186.0" y2="227.0"/>
<line stroke="#000000" x1="79.0" y1="215.0" x2="101.0" y2="244.0"/>
<line stroke="#000000" x1="101.0" y1="244.0" x2="186.0" y2="227.0"/>
<line stroke="#000000" x1="79.0" y1="215.0" x2="102.0" y2="244.0"/>
<line stroke="#000000" x1="102.0" y1="244.0" x2="186.0" y2="227.0"/>
<line stroke="#000000" x1="79.0" y1="215.0" x2="103.0" y2="244.0"/>
<line stroke="#000000" x1="103.0" y1="244.0" x2="186.0" y2="227.0"/>
<line stroke="#000000" x1="79.0" y1="215.0" x2="104.0" y2="244.0"/>
<line stroke="#000000" x1="104.0" y1="244.0" x2="186.0" y2="227.0"/>
<line stroke="#000000" x1="79.0" y1="215.0" x2="105.0" y2="244.0"/>
<line stroke="#000000" x1="105.0" y1="244.0" x2="186.0" y2="227.0"/>
<line stroke="#000000" x1="79.0" y1="215.0" x2="106.0" y2="244.0"/>
<line stroke="#000000" x1="106.0" y1="244.0" x2="186.0" y2="227.0"/>
<line stroke="#000000" x1="79.0" y1="215.0" x2="107.0" y2="244.0"/>
<line stroke="#000000" x1="107.0" y1="244.0" x2="186.0" y2="227.0"/>
<line stroke="#000000" x1="79.0" y1="215.0" x2="108.0" y2="243.0"/>
<line stroke="#000000" x1="108.0" y1="243.0" x2="186.0" y2="227.0"/>
<line stroke="#000000" x1="79.0" y1="215.0" x2="109.0" y2="243.0"/>
<line stroke="#000000" x1="109.0" y1="243.0" x2="186.0" y2="227.0"/>
<line stroke="#000000" x1="79.0" y1="215.0" x2="110.0" y2="244.0"/>
<line stroke="#000000" x1="110.0" y1="244.0" x2="186.0" y2="227.0"/>
<line stroke="#000000" x1="79.0" y1="215.0" x2="111.0" y2="242.0"/>
<line stroke="#000000" x1="111.0" y1="242.0" x2="186.0" y2="227.0"/>
<line stroke="#000000" x1="79.0" y1="215.0" x2="112.0" y2="242.0"/>
<line stroke="#000000" x1="112.0" y1="242.0" x2="186.0" y2="227.0"/>
<line stroke="#000000" x1="79.0" y1="215.0" x2="113.0" y2="241.0"/>
<line stroke="#000000" x1="113.0" y1="241.0" x2="186.0" y2="227.0"/>
<line stroke="#000000" x1="79.0" y1="215.0" x2="114.0" y2="241.0"/>
<line stroke="#000000" x1="114.0" y1="241.0" x2="186.0" y2="227.0"/>
<line stroke="#000000" x1="79.0" y1="215.0" x2="115.0" y2="241.0"/>
<line stroke="#000000" x1="115.0" y1="241.0" x2="186.0" y2="227.0"/>
<line stroke="#000000" x1="79.0" y1="215.0" x2="118.0" y2="243.0"/>
<line stroke="#000000" x1="118.0" y1="243.0" x2="186.0" y2="227.0"/>
<line stroke="#000000" x1="79.0" y1="215.0" x2="81.0" y2="240.0"/>
<line stroke="#000000" x1="81.0" y1="240.0" x2="117.0" y2="240.0"/>
<line stroke="#000000" x1="79.0" y1="215.0" x2="84.0" y2="242.0"/>
<line stroke="#000000" x1="84.0" y1="242.0" x2="117.0" y2="240.0"/>
<line stroke="#000000" x1="117.0" y1="240.0" x2="186.0" y2="227.0"/>
<line stroke="#000000" x1="79.0" y1="215.0" x2="81.0" y2="240.0"/>
<line stroke="#000000" x1="81.0" y1="240.0" x2="127.0" y2="241.0"/>
<line stroke="#000000" x1="79.0" y1="215.0" x2="82.0" y2="240.0"/>
<line stroke="#000000" x1="82.0" y1="240.0" x2="127.0" y2="241.0"/>
<line stroke="#000000" x1="79.0" y1="215.0" x2="84.0" y2="242.0"/>
<line stroke="#000000" x1="84.0" y1="242.0" x2="127.0" y2="241.0"/>
<line stroke="#000000" x1="79.0" y1="215.0" x2="85.0" y2="241.0"/>
<line stroke="#000000" x1="85.0" y1="241.0" x2="127.0" y2="241.0"/>
<line stroke="#000000" x1="79.0" y1="215.0" x2="87.0" y2="242.0"/>
<line stroke="#000000" x1="87.0" y1="242.0" x2="127.0" y2="241.0"/>
<line stroke="#000000" x1="79.0" y1="215.0" x2="88.0" y2="243.0"/>
<line stroke="#000000" x1="88.0" y1="243.0" x2="127.0" y2="241.0"/>
<line stroke="#000000" x1="127.0" y1="241.0" x2="186.0" y2="227.0"/>
<line stroke="#000000" x1="79.0" y1="215.0" x2="81.0" y2="240.0"/>
<line stroke="#000000" x1="81.0" y1="240.0" x2="161.0" y2="244.0"/>
<line stroke="#000000" x1="79.0" y1="215.0" x2="82.0" y2="240.0"/>
<line stroke="#000000" x1="82.0" y1="240.0" x2="161.0" y2="244.0"/>
<line stroke="#000000" x1="79.0" y1="215.0" x2="84.0" y2="239.0"/>
<line stroke="#000000" x1="84.0" y1="239.0" x2="161.0" y2="244.0"/>
<line stroke="#000000" x1="79.0" y1="215.0" x2="84.0" y2="242.0"/>
<line stroke="#000000" x1="84.0" y1="242.0" x2="161.0" y2="244.0"/>
<line stroke="#000000" x1="79.0" y1="215.0" x2="85.0" y2="241.0"/>
<line stroke="#000000" x1="85.0" y1="241.0" x2="161.0" y2="244.0"/>
<line stroke="#000000" x1="79.0" y1="215.0" x2="86.0" y2="241.0"/>
<line stroke="#000000" x1="86.0" y1="241.0" x2="161.0" y2="244.0"/>
<line stroke="#000000" x1="79.0" y1="215.0" x2="87.0" y2="242.0"/>
<line stroke="#000000" x1="87.0" y1="242.0" x2="161.0" y2="244.0"/>
<line stroke="#000000" x1="79.0" y1="215.0" x2="88.0" y2="243.0"/>
<line stroke="#000000" x1="88.0" y1="243.0" x2="161.0" y2="244.0"/>
<line stroke="#000000" x1="79.0" y1="215.0" x2="89.0" y2="242.0"/>
<line stroke="#000000" x1="89.0" y1="242.0" x2="161.0" y2="244.0"/>
<line stroke="#000000" x1="79.0" y1="215.0" x2="90.0" y2="243.0"/>
<line stroke="#000000" x1="90.0" y1="243.0" x2="161.0" y2="244.0"/>
<line stroke="#000000" x1="79.0" y1="215.0" x2="91.0" y2="243.0"/>
<line stroke="#000000" x1="91.0" y1="243.0" x2="161.0" y2="244.0"/>
<line stroke="#000000" x1="79.0" y1="215.0" x2="92.0" y2="243.0"/>
<line stroke="#000000" x1="92.0" y1="243.0" x2="161.0" y2="244.0"/>
<line stroke="#000000" x1="79.0" y1="215.0" x2="93.0" y2="244.0"/>
<line stroke="#000000" x1="93.0" y1="244.0" x2="161.0" y2="244.0"/>
<line stroke="#000000" x1="79.0" y1="215.0" x2="94.0" y2="244.0"/>
<line stroke="#000000" x1="94.0" y1="244.0" x2="161.0" y2="244.0"/>
<line stroke="#000000" x1="79.0" y1="215.0" x2="95.0" y2="244.0"/>
<line stroke="#000000" x1="95.0" y1="244.0" x2="161.0" y2="244.0"/>
<line stroke="#000000" x1="79.0" y1="215.0" x2="96.0" y2="244.0"/>
<line stroke="#000000" x1="96.0" y1="244.0" x2="161.0" y2="244.0"/>
<line stroke="#000000" x1="79.0" y1="215.0" x2="97.0" y2="244.0"/>
<line stroke="#000000" x1="97.0" y1="244.0" x2="161.0" y2="244.0"/>
<line stroke="#000000" x1="79.0" y1="215.0" x2="98.0" y2="244.0"/>
<line stroke="#000000" x1="98.0" y1="244.0" x2="161.0" y2="244.0"/>
<line stroke="#000000" x1="79.0" y1="215.0" x2="99.0" y2="244.0"/>
<line stroke="#000000" x1="99.0" y1="244.0" x2="161.0" y2="244.0"/>
<line stroke="#000000" x1="79.0" y1="215.0" x2="100.0" y2="245.0"/>
<line stroke="#000000" x1="100.0" y1="245.0" x2="161.0" y2="244.0"/>
<line stroke="#000000" x1="79.0" y1="215.0" x2="101.0" y2="244.0"/>
<line stroke="#000000" x1="101.0" y1="244.0" x2="161.0" y2="244.0"/>
<line stroke="#000000" x1="79.0" y1="215.0" x2="102.0" y2="244.0"/>
<line stroke="#000000" x1="102.0" y1="244.0" x2="161.0" y2="244.0"/>
<line stroke="#000000" x1="161.0" y1="244.0" x2="186.0" y2="227.0"/>
</g>
</svg>
